ISO-10303-21;
HEADER;
/* Generated by software containing ST-Developer
 * from STEP Tools, Inc. (www.steptools.com) 
 */

FILE_DESCRIPTION(
/* description */ ('FreeCAD Model'),
/* implementation_level */ '2;1');

FILE_NAME(
/* name */ 'back angle bar1.step',
/* time_stamp */ '2026-09-06T16:02:24-04:00',
/* author */ (''),
/* organization */ (''),
/* preprocessor_version */ 'ST-DEVELOPER v20.1',
/* originating_system */ 'Autodesk Translation Framework v15.8.0.0',
/* authorisation */ '');

FILE_SCHEMA (('AUTOMOTIVE_DESIGN { 1 0 10303 214 3 1 1 }'));
ENDSEC;

DATA;
#10=MECHANICAL_DESIGN_GEOMETRIC_PRESENTATION_REPRESENTATION('',(#17),#414);
#11=ITEM_DEFINED_TRANSFORMATION($,$,#88,#93);
#12=(
REPRESENTATION_RELATIONSHIP($,$,#425,#424)
REPRESENTATION_RELATIONSHIP_WITH_TRANSFORMATION(#11)
SHAPE_REPRESENTATION_RELATIONSHIP()
);
#13=CONTEXT_DEPENDENT_SHAPE_REPRESENTATION(#12,#423);
#14=NEXT_ASSEMBLY_USAGE_OCCURRENCE('back angle bar:1',
'back angle bar:1','back angle bar:1',#427,#428,'back angle bar:1');
#15=SHAPE_REPRESENTATION_RELATIONSHIP('SRR','None',#425,#16);
#16=ADVANCED_BREP_SHAPE_REPRESENTATION('',(#18),#413);
#17=STYLED_ITEM('',(#438),#18);
#18=MANIFOLD_SOLID_BREP('Body1',#74);
#19=FACE_BOUND('',#27,.T.);
#20=FACE_BOUND('',#30,.T.);
#21=FACE_OUTER_BOUND('',#25,.T.);
#22=FACE_OUTER_BOUND('',#26,.T.);
#23=FACE_OUTER_BOUND('',#28,.T.);
#24=FACE_OUTER_BOUND('',#29,.T.);
#25=EDGE_LOOP('',(#52,#53,#54,#55,#56));
#26=EDGE_LOOP('',(#57));
#27=EDGE_LOOP('',(#58));
#28=EDGE_LOOP('',(#59,#60,#61,#62));
#29=EDGE_LOOP('',(#63,#64));
#30=EDGE_LOOP('',(#65));
#31=LINE('',#197,#33);
#32=LINE('',#340,#34);
#33=VECTOR('',#100,19.05);
#34=VECTOR('',#105,16.9418);
#35=B_SPLINE_CURVE_WITH_KNOTS('',3,(#115,#116,#117,#118,#119,#120,#121,
#122,#123,#124,#125,#126,#127,#128,#129,#130,#131,#132,#133,#134,#135,#136,
#137,#138,#139,#140,#141,#142,#143,#144,#145,#146,#147,#148,#149,#150,#151,
#152,#153,#154,#155,#156,#157,#158,#159,#160,#161,#162,#163,#164,#165,#166,
#167,#168,#169,#170,#171,#172,#173,#174,#175,#176,#177,#178,#179,#180,#181,
#182,#183,#184,#185,#186,#187),.UNSPECIFIED.,.F.,.F.,(4,2,2,2,2,2,2,2,2,
2,2,2,2,2,3,2,2,2,2,2,2,2,2,2,2,2,2,2,2,2,2,2,2,2,2,4),(-5.74286765301809,
-5.15568242421783,-4.76628073808598,-4.37687905195412,-3.98747736582227,
-3.59807567969041,-3.20867399356096,-2.8192723074315,-2.42987062130204,
-2.04046893517259,-1.41348373064646,-0.786498526120329,-0.393249263060165,
-0.196624631530082,0.,0.217094767270419,0.434189534540838,0.868379069081676,
1.30256860362251,1.73675813816335,2.1331227809423,2.52948742372125,2.92585206650019,
3.32221670927914,3.7185813520617,4.11494599484426,4.51131063762682,4.90767528040938,
5.34186481497134,5.77605434953329,6.21024388409525,6.42733865137623,6.6444334186572,
6.8410580501923,7.0376826817274,7.3207563806142),.UNSPECIFIED.);
#36=B_SPLINE_CURVE_WITH_KNOTS('',3,(#188,#189,#190,#191,#192,#193,#194,
#195),.UNSPECIFIED.,.F.,.F.,(4,2,2,4),(-6.51982839750622,-6.40965283332282,
-5.78266762877033,-5.74286765301809),.UNSPECIFIED.);
#37=B_SPLINE_CURVE_WITH_KNOTS('',3,(#198,#199,#200,#201,#202,#203,#204,
#205,#206,#207,#208,#209,#210,#211,#212,#213,#214,#215,#216,#217,#218,#219,
#220,#221,#222,#223,#224,#225,#226,#227,#228,#229,#230,#231,#232,#233,#234,
#235,#236,#237,#238,#239,#240,#241,#242,#243,#244,#245,#246,#247,#248,#249,
#250,#251,#252,#253,#254,#255,#256,#257,#258,#259,#260,#261,#262,#263,#264,
#265,#266,#267,#268,#269,#270,#271,#272,#273),.UNSPECIFIED.,.T.,.F.,(4,
2,2,2,2,2,2,2,2,2,2,2,2,2,2,2,2,2,2,2,2,2,2,2,2,2,2,2,2,2,2,2,2,2,2,2,2,
4),(-13.7487481238199,-13.5878270106387,-13.4269058974575,-13.1050636710951,
-12.7832214447326,-12.4613792183702,-11.9399240732837,-11.4184689281971,
-10.9818601918157,-10.5452514554344,-10.1086427174221,-9.6720339794099,
-9.15057882053931,-8.62912366166873,-8.30728137462247,-7.98543908757622,
-7.66359680052997,-7.50267565700685,-7.34175451348372,-7.15662246419893,
-6.97149041491414,-6.60122631634456,-5.9948301562608,-5.38843399617704,
-4.97612007500776,-4.56380615383847,-4.15149223266919,-3.73917831149991,
-3.3067278719231,-2.87427743234629,-2.44182699276949,-2.00937655319268,
-1.50703241489451,-1.00468827659634,-0.502344138298169,-0.251172069149085,
-0.125586034574542,0.),.UNSPECIFIED.);
#38=B_SPLINE_CURVE_WITH_KNOTS('',3,(#276,#277,#278,#279,#280,#281,#282,
#283,#284,#285,#286,#287,#288,#289,#290,#291,#292,#293,#294,#295,#296,#297,
#298,#299,#300,#301,#302,#303,#304,#305,#306,#307,#308,#309,#310,#311,#312,
#313,#314,#315,#316,#317,#318,#319,#320,#321,#322,#323,#324,#325,#326,#327,
#328,#329,#330,#331,#332,#333,#334,#335,#336,#337),.UNSPECIFIED.,.T.,.F.,
(4,2,2,2,2,2,2,2,2,2,2,2,2,2,2,2,2,2,2,2,2,2,2,2,2,2,2,2,2,2,4),(0.,0.261994929424192,
0.523989858848383,1.04797971769677,1.45886619421772,1.86975267073867,2.28063914725962,
2.69152562378057,3.10241210427256,3.51329858476456,3.92418506525656,4.33507154574855,
4.85906142828386,5.12105636955152,5.38305131081917,5.77615341445231,6.16925551808545,
6.56235762171858,6.95545972535172,7.31186333286583,7.66826694037994,8.02467054789404,
8.38107415540815,8.73747775801072,9.0938813606133,9.45028496321587,9.80668856581845,
10.1997906574822,10.592892749146,10.9859948408098,11.3790969324736),
 .UNSPECIFIED.);
#39=B_SPLINE_CURVE_WITH_KNOTS('',3,(#341,#342,#343,#344,#345,#346,#347,
#348,#349,#350,#351,#352,#353,#354,#355,#356,#357,#358,#359,#360,#361,#362,
#363,#364,#365,#366,#367,#368,#369,#370,#371,#372,#373,#374,#375,#376,#377,
#378,#379,#380,#381,#382,#383,#384,#385,#386,#387,#388,#389,#390,#391,#392,
#393,#394,#395,#396,#397,#398,#399,#400,#401,#402,#403,#404,#405,#406),
 .UNSPECIFIED.,.T.,.F.,(4,2,2,2,2,2,2,2,2,2,2,2,2,2,2,2,2,2,2,2,2,2,2,2,
2,2,2,2,2,2,2,2,4),(0.,0.393102097149959,0.786204194299917,1.17930629144988,
1.57240838859983,1.92881199341741,2.28521559823498,2.64161920305255,2.99802280787012,
3.35442641268937,3.71083001750861,4.06723362232786,4.4236372271471,4.81673932430115,
5.20984142145519,5.60294351860924,5.99604561576329,6.32924772997345,6.66244984418361,
6.99565195839377,7.32885407260393,7.66984927206441,8.01084447152489,8.35183967098537,
8.69283487044586,9.03383006990444,9.37482526936302,9.71582046882161,10.0568156682802,
10.3900177824887,10.7232198966973,11.0564220109058,11.3896241251144),
 .UNSPECIFIED.);
#40=VERTEX_POINT('',#113);
#41=VERTEX_POINT('',#114);
#42=VERTEX_POINT('',#196);
#43=VERTEX_POINT('',#275);
#44=VERTEX_POINT('',#339);
#45=EDGE_CURVE('',#40,#41,#35,.F.);
#46=EDGE_CURVE('',#41,#40,#36,.F.);
#47=EDGE_CURVE('',#41,#42,#31,.T.);
#48=EDGE_CURVE('',#42,#42,#37,.T.);
#49=EDGE_CURVE('',#43,#43,#38,.T.);
#50=EDGE_CURVE('',#43,#44,#32,.T.);
#51=EDGE_CURVE('',#44,#44,#39,.T.);
#52=ORIENTED_EDGE('',*,*,#45,.F.);
#53=ORIENTED_EDGE('',*,*,#46,.F.);
#54=ORIENTED_EDGE('',*,*,#47,.T.);
#55=ORIENTED_EDGE('',*,*,#48,.T.);
#56=ORIENTED_EDGE('',*,*,#47,.F.);
#57=ORIENTED_EDGE('',*,*,#48,.F.);
#58=ORIENTED_EDGE('',*,*,#49,.T.);
#59=ORIENTED_EDGE('',*,*,#49,.F.);
#60=ORIENTED_EDGE('',*,*,#50,.T.);
#61=ORIENTED_EDGE('',*,*,#51,.T.);
#62=ORIENTED_EDGE('',*,*,#50,.F.);
#63=ORIENTED_EDGE('',*,*,#45,.T.);
#64=ORIENTED_EDGE('',*,*,#46,.T.);
#65=ORIENTED_EDGE('',*,*,#51,.F.);
#66=CYLINDRICAL_SURFACE('',#89,19.05);
#67=CYLINDRICAL_SURFACE('',#90,19.4);
#68=CYLINDRICAL_SURFACE('',#91,16.9418);
#69=CYLINDRICAL_SURFACE('',#92,19.4);
#70=ADVANCED_FACE('',(#21),#66,.T.);
#71=ADVANCED_FACE('',(#22,#19),#67,.F.);
#72=ADVANCED_FACE('',(#23),#68,.F.);
#73=ADVANCED_FACE('',(#24,#20),#69,.F.);
#74=CLOSED_SHELL('',(#70,#71,#72,#73));
#75=DERIVED_UNIT_ELEMENT(#77,1.);
#76=DERIVED_UNIT_ELEMENT(#416,-3.);
#77=(
MASS_UNIT()
NAMED_UNIT(*)
SI_UNIT(.KILO.,.GRAM.)
);
#78=DERIVED_UNIT((#75,#76));
#79=MEASURE_REPRESENTATION_ITEM('density measure',
POSITIVE_RATIO_MEASURE(7850.),#78);
#80=PROPERTY_DEFINITION_REPRESENTATION(#85,#82);
#81=PROPERTY_DEFINITION_REPRESENTATION(#86,#83);
#82=REPRESENTATION('material name',(#84),#413);
#83=REPRESENTATION('density',(#79),#413);
#84=DESCRIPTIVE_REPRESENTATION_ITEM('Steel','Steel');
#85=PROPERTY_DEFINITION('material property','material name',#428);
#86=PROPERTY_DEFINITION('material property','density of part',#428);
#87=AXIS2_PLACEMENT_3D('',#110,#94,#95);
#88=AXIS2_PLACEMENT_3D('',#111,#96,#97);
#89=AXIS2_PLACEMENT_3D('',#112,#98,#99);
#90=AXIS2_PLACEMENT_3D('',#274,#101,#102);
#91=AXIS2_PLACEMENT_3D('',#338,#103,#104);
#92=AXIS2_PLACEMENT_3D('',#407,#106,#107);
#93=AXIS2_PLACEMENT_3D('',#408,#108,#109);
#94=DIRECTION('axis',(0.,0.,1.));
#95=DIRECTION('refdir',(1.,0.,0.));
#96=DIRECTION('axis',(0.,0.,1.));
#97=DIRECTION('refdir',(1.,0.,0.));
#98=DIRECTION('center_axis',(0.234324256606021,-0.915922284784083,0.32585044269103));
#99=DIRECTION('ref_axis',(0.534744687237261,0.401355663017111,0.743613979989362));
#100=DIRECTION('',(-0.234324256606021,0.915922284784083,-0.32585044269103));
#101=DIRECTION('center_axis',(-1.,1.254761405888E-9,-5.127730906551E-9));
#102=DIRECTION('ref_axis',(-2.90090240606919E-9,-0.9421532785696,0.335182337960331));
#103=DIRECTION('center_axis',(0.234324256606021,-0.915922284784083,0.32585044269103));
#104=DIRECTION('ref_axis',(0.534744687237261,0.401355663017111,0.743613979989363));
#105=DIRECTION('',(0.234324256606021,-0.915922284784083,0.32585044269103));
#106=DIRECTION('center_axis',(-1.,-2.22044604925E-16,2.22044604925E-16));
#107=DIRECTION('ref_axis',(-2.22044604925E-16,0.,-1.));
#108=DIRECTION('',(0.,0.,1.));
#109=DIRECTION('',(1.,0.,0.));
#110=CARTESIAN_POINT('',(0.,0.,0.));
#111=CARTESIAN_POINT('',(0.,0.,0.));
#112=CARTESIAN_POINT('Origin',(380.99999927454,845.89818015147,-624.058002232));
#113=CARTESIAN_POINT('',(551.70996001213,150.91685367621,-396.2099805863));
#114=CARTESIAN_POINT('',(545.345254703393,156.044373708736,-395.520099194052));
#115=CARTESIAN_POINT('Ctrl Pts',(545.345254703389,156.044373708736,-395.520099194049));
#116=CARTESIAN_POINT('Ctrl Pts',(543.771770621796,157.43480784609,-395.139049824847));
#117=CARTESIAN_POINT('Ctrl Pts',(542.278054541579,158.844697029062,-394.577434227492));
#118=CARTESIAN_POINT('Ctrl Pts',(540.13660105169,161.001543581477,-393.411629339039));
#119=CARTESIAN_POINT('Ctrl Pts',(539.289463520662,161.895631923054,-392.843206928262));
#120=CARTESIAN_POINT('Ctrl Pts',(537.729252690852,163.656674330305,-391.482911056554));
#121=CARTESIAN_POINT('Ctrl Pts',(537.016330313406,164.523559041693,-390.690774725773));
#122=CARTESIAN_POINT('Ctrl Pts',(535.825812562421,166.140248681858,-388.895805645153));
#123=CARTESIAN_POINT('Ctrl Pts',(535.34720562315,166.891691176046,-387.890667469958));
#124=CARTESIAN_POINT('Ctrl Pts',(534.69834114636,168.201427782501,-385.710573431784));
#125=CARTESIAN_POINT('Ctrl Pts',(534.528349967056,168.759558005865,-384.535439847418));
#126=CARTESIAN_POINT('Ctrl Pts',(534.528349967052,169.62969534965,-382.089599426278));
#127=CARTESIAN_POINT('Ctrl Pts',(534.698341146351,169.939172341655,-380.826004444198));
#128=CARTESIAN_POINT('Ctrl Pts',(535.347205623129,170.300644159618,-378.308553726045));
#129=CARTESIAN_POINT('Ctrl Pts',(535.825812562393,170.352878295955,-377.054663711614));
#130=CARTESIAN_POINT('Ctrl Pts',(537.016330313367,170.233128050123,-374.641935116941));
#131=CARTESIAN_POINT('Ctrl Pts',(537.729252690807,170.061330129858,-373.480274863701));
#132=CARTESIAN_POINT('Ctrl Pts',(539.28946352061,169.555128695829,-371.31337954393));
#133=CARTESIAN_POINT('Ctrl Pts',(540.136601051635,169.220944977851,-370.30798447619));
#134=CARTESIAN_POINT('Ctrl Pts',(542.365327671664,168.246894397563,-367.949541976206));
#135=CARTESIAN_POINT('Ctrl Pts',(543.975545614192,167.444890317988,-366.53749390375));
#136=CARTESIAN_POINT('Ctrl Pts',(547.356930851558,165.630671683669,-364.07406623627));
#137=CARTESIAN_POINT('Ctrl Pts',(549.125650842334,164.618582066154,-363.019237193353));
#138=CARTESIAN_POINT('Ctrl Pts',(551.851369884589,163.086755361128,-361.681598281721));
#139=CARTESIAN_POINT('Ctrl Pts',(553.018970433221,162.429225781007,-361.179645768512));
#140=CARTESIAN_POINT('Ctrl Pts',(554.810755849994,161.568942244609,-360.592284578481));
#141=CARTESIAN_POINT('Ctrl Pts',(555.413208504184,161.304888868765,-360.423851679605));
#142=CARTESIAN_POINT('Ctrl Pts',(556.638402254201,160.900290791789,-360.174251338143));
#143=CARTESIAN_POINT('Ctrl Pts',(557.260360186707,160.758317697116,-360.091560029166));
#144=CARTESIAN_POINT('Ctrl Pts',(557.915775625141,160.758317697116,-360.091560029166));
#145=CARTESIAN_POINT('Ctrl Pts',(558.639424849376,160.758317697116,-360.091560029166));
#146=CARTESIAN_POINT('Ctrl Pts',(559.220419997367,160.9291069065,-360.191073945084));
#147=CARTESIAN_POINT('Ctrl Pts',(560.28032066718,161.388798918867,-360.476837019192));
#148=CARTESIAN_POINT('Ctrl Pts',(560.757278906249,161.680812459423,-360.665288579796));
#149=CARTESIAN_POINT('Ctrl Pts',(562.161781485754,162.646596901962,-361.337790100216));
#150=CARTESIAN_POINT('Ctrl Pts',(563.044955007103,163.398751716655,-361.921398308501));
#151=CARTESIAN_POINT('Ctrl Pts',(564.835151690394,164.93617465396,-363.35909585165));
#152=CARTESIAN_POINT('Ctrl Pts',(565.720358774071,165.713433486564,-364.206894611577));
#153=CARTESIAN_POINT('Ctrl Pts',(567.415141160829,167.14306717166,-366.110141948319));
#154=CARTESIAN_POINT('Ctrl Pts',(568.22362805533,167.79604655942,-367.166105380924));
#155=CARTESIAN_POINT('Ctrl Pts',(569.633452614495,168.843065173423,-369.306389493817));
#156=CARTESIAN_POINT('Ctrl Pts',(570.283529670995,169.282692154143,-370.436598620387));
#157=CARTESIAN_POINT('Ctrl Pts',(571.455423826128,169.948990914917,-372.847434325991));
#158=CARTESIAN_POINT('Ctrl Pts',(571.97718176215,170.175535066467,-374.128124934712));
#159=CARTESIAN_POINT('Ctrl Pts',(572.831430829227,170.361280887703,-376.751510607395));
#160=CARTESIAN_POINT('Ctrl Pts',(573.164794356473,170.32050583652,-378.097379785906));
#161=CARTESIAN_POINT('Ctrl Pts',(573.608904334757,169.958703954088,-380.755490928748));
#162=CARTESIAN_POINT('Ctrl Pts',(573.719490226712,169.637474885306,-382.067732185547));
#163=CARTESIAN_POINT('Ctrl Pts',(573.719490226716,168.751778470207,-384.557307088154));
#164=CARTESIAN_POINT('Ctrl Pts',(573.608904334763,168.172035369865,-385.777578848178));
#165=CARTESIAN_POINT('Ctrl Pts',(573.164794356481,166.773715449992,-388.066936149179));
#166=CARTESIAN_POINT('Ctrl Pts',(572.831430829234,165.955295873197,-389.136148872081));
#167=CARTESIAN_POINT('Ctrl Pts',(571.977181762157,164.154391351567,-391.052759631168));
#168=CARTESIAN_POINT('Ctrl Pts',(571.455423826136,163.169883630645,-391.902603872986));
#169=CARTESIAN_POINT('Ctrl Pts',(570.283529671006,161.13064745283,-393.350912765886));
#170=CARTESIAN_POINT('Ctrl Pts',(569.63345261451,160.075977506732,-393.949507667968));
#171=CARTESIAN_POINT('Ctrl Pts',(568.223628055327,157.912443851085,-394.94759893797));
#172=CARTESIAN_POINT('Ctrl Pts',(567.415141160804,156.739253185952,-395.353880263225));
#173=CARTESIAN_POINT('Ctrl Pts',(565.720358774021,154.428785176638,-395.926541137479));
#174=CARTESIAN_POINT('Ctrl Pts',(564.835151690341,153.290713957021,-396.092938040729));
#175=CARTESIAN_POINT('Ctrl Pts',(563.044955007086,151.190711277331,-396.236577379081));
#176=CARTESIAN_POINT('Ctrl Pts',(562.16178148578,150.238962505435,-396.21400125575));
#177=CARTESIAN_POINT('Ctrl Pts',(560.757278906385,149.065441702701,-396.125419032682));
#178=CARTESIAN_POINT('Ctrl Pts',(560.280320667366,148.720018556705,-396.087094774028));
#179=CARTESIAN_POINT('Ctrl Pts',(559.220419997644,148.183132741447,-396.018313219503));
#180=CARTESIAN_POINT('Ctrl Pts',(558.639424849698,147.987867292817,-395.987598758688));
#181=CARTESIAN_POINT('Ctrl Pts',(557.260360186978,147.987867292817,-395.987598758688));
#182=CARTESIAN_POINT('Ctrl Pts',(556.63840225449,148.150166519569,-396.013156012152));
#183=CARTESIAN_POINT('Ctrl Pts',(555.413208504507,148.621497813713,-396.075178150123));
#184=CARTESIAN_POINT('Ctrl Pts',(554.810755850335,148.932599775776,-396.111363726626));
#185=CARTESIAN_POINT('Ctrl Pts',(553.353636827534,149.776684919577,-396.182893945262));
#186=CARTESIAN_POINT('Ctrl Pts',(552.509012606637,150.346448497052,-396.2099805863));
#187=CARTESIAN_POINT('Ctrl Pts',(551.709960012126,150.916853676204,-396.2099805863));
#188=CARTESIAN_POINT('Ctrl Pts',(551.709960012126,150.916853676204,-396.2099805863));
#189=CARTESIAN_POINT('Ctrl Pts',(551.398959482021,151.138861982427,-396.2099805863));
#190=CARTESIAN_POINT('Ctrl Pts',(551.095093366272,151.361291874255,-396.20613241536));
#191=CARTESIAN_POINT('Ctrl Pts',(549.125650842672,152.829832568527,-396.155845156272));
#192=CARTESIAN_POINT('Ctrl Pts',(547.356930851841,154.280726898887,-395.977252474337));
#193=CARTESIAN_POINT('Ctrl Pts',(545.558915883639,155.85597287097,-395.570964867707));
#194=CARTESIAN_POINT('Ctrl Pts',(545.451906957605,155.95012875461,-395.545927084314));
#195=CARTESIAN_POINT('Ctrl Pts',(545.345254703389,156.044373708736,-395.520099194049));
#196=CARTESIAN_POINT('',(372.897299190627,830.105730540194,-635.325586273799));
#197=CARTESIAN_POINT('',(370.81311298267,838.252354770994,-638.223848550797));
#198=CARTESIAN_POINT('Ctrl Pts',(381.884223802151,848.827164660143,-604.88038339278));
#199=CARTESIAN_POINT('Ctrl Pts',(381.347820091547,848.827164660816,-604.88038339553));
#200=CARTESIAN_POINT('Ctrl Pts',(380.878141139221,848.71605919962,-604.862940107717));
#201=CARTESIAN_POINT('Ctrl Pts',(380.008454714839,848.36813009867,-604.815076347706));
#202=CARTESIAN_POINT('Ctrl Pts',(379.608197599678,848.131876515425,-604.785050909346));
#203=CARTESIAN_POINT('Ctrl Pts',(378.444628157079,847.309488598662,-604.701564663965));
#204=CARTESIAN_POINT('Ctrl Pts',(377.721185872505,846.616547378685,-604.656105881035));
#205=CARTESIAN_POINT('Ctrl Pts',(376.274615280528,845.080819171767,-604.660024127868));
#206=CARTESIAN_POINT('Ctrl Pts',(375.564836029332,844.242202450556,-604.709526719826));
#207=CARTESIAN_POINT('Ctrl Pts',(374.195170741357,842.529606178083,-604.933189120208));
#208=CARTESIAN_POINT('Ctrl Pts',(373.536232861034,841.654863666055,-605.107311562478));
#209=CARTESIAN_POINT('Ctrl Pts',(371.928437713607,839.42993191226,-605.712576129335));
#210=CARTESIAN_POINT('Ctrl Pts',(370.914942617399,837.924991103826,-606.294915409056));
#211=CARTESIAN_POINT('Ctrl Pts',(369.117053423475,835.03141000912,-607.902126965007));
#212=CARTESIAN_POINT('Ctrl Pts',(368.333919323455,833.643663494852,-608.930016060084));
#213=CARTESIAN_POINT('Ctrl Pts',(367.243629953052,831.478018986953,-611.008474802225));
#214=CARTESIAN_POINT('Ctrl Pts',(366.804138447468,830.486048264817,-612.174818131509));
#215=CARTESIAN_POINT('Ctrl Pts',(366.22198091888,828.800485225593,-614.762159029582));
#216=CARTESIAN_POINT('Ctrl Pts',(366.080508858723,828.108218886051,-616.18428863972));
#217=CARTESIAN_POINT('Ctrl Pts',(366.080508847291,827.132595086108,-618.926637583549));
#218=CARTESIAN_POINT('Ctrl Pts',(366.22198089621,826.771115264263,-620.466448504715));
#219=CARTESIAN_POINT('Ctrl Pts',(366.804138398674,826.443812238308,-623.537006843989));
#220=CARTESIAN_POINT('Ctrl Pts',(367.243629889031,826.476246014764,-625.06779447067));
#221=CARTESIAN_POINT('Ctrl Pts',(368.333919232694,826.842555860109,-628.047026647101));
#222=CARTESIAN_POINT('Ctrl Pts',(369.117053323556,827.269282622078,-629.720436594558));
#223=CARTESIAN_POINT('Ctrl Pts',(370.914942477535,828.497599098973,-632.794063125851));
#224=CARTESIAN_POINT('Ctrl Pts',(371.928437542545,829.296590486034,-634.19605417184));
#225=CARTESIAN_POINT('Ctrl Pts',(373.536232699392,830.639315674848,-636.070555955647));
#226=CARTESIAN_POINT('Ctrl Pts',(374.195170636268,831.207535149833,-636.758029644617));
#227=CARTESIAN_POINT('Ctrl Pts',(375.564835984823,832.394058683064,-638.013089062256));
#228=CARTESIAN_POINT('Ctrl Pts',(376.274615240274,833.012977868601,-638.581127696251));
#229=CARTESIAN_POINT('Ctrl Pts',(377.721185736426,834.201162098659,-639.554110732325));
#230=CARTESIAN_POINT('Ctrl Pts',(378.444627900231,834.767114597182,-639.956518592183));
#231=CARTESIAN_POINT('Ctrl Pts',(379.608197100177,835.457445629246,-640.411200386658));
#232=CARTESIAN_POINT('Ctrl Pts',(380.008454115967,835.659578126439,-640.537136092627));
#233=CARTESIAN_POINT('Ctrl Pts',(380.878140403735,835.959559834954,-640.719774436531));
#234=CARTESIAN_POINT('Ctrl Pts',(381.34781931708,836.056717584527,-640.776423309032));
#235=CARTESIAN_POINT('Ctrl Pts',(382.501329959773,836.056717583079,-640.776423303117));
#236=CARTESIAN_POINT('Ctrl Pts',(383.092280284856,835.929836853897,-640.70249963035));
#237=CARTESIAN_POINT('Ctrl Pts',(384.256636869689,835.559702741334,-640.475159167564));
#238=CARTESIAN_POINT('Ctrl Pts',(384.829664036148,835.315853403744,-640.320772655855));
#239=CARTESIAN_POINT('Ctrl Pts',(386.531234438173,834.51656184601,-639.781607408459));
#240=CARTESIAN_POINT('Ctrl Pts',(387.637932912382,833.899746544476,-639.320066041494));
#241=CARTESIAN_POINT('Ctrl Pts',(390.262811330722,832.431650987833,-638.073786930041));
#242=CARTESIAN_POINT('Ctrl Pts',(391.983093170427,831.443026915989,-637.079344412293));
#243=CARTESIAN_POINT('Ctrl Pts',(395.284296602533,829.651255494249,-634.760537971033));
#244=CARTESIAN_POINT('Ctrl Pts',(396.862770063245,828.847891107938,-633.432858271679));
#245=CARTESIAN_POINT('Ctrl Pts',(399.144925643822,827.809481655038,-631.142825074633));
#246=CARTESIAN_POINT('Ctrl Pts',(400.06350658216,827.428761787699,-630.106600289091));
#247=CARTESIAN_POINT('Ctrl Pts',(401.759541228787,826.839706814944,-627.863202590098));
#248=CARTESIAN_POINT('Ctrl Pts',(402.536867994656,826.631572548384,-626.655880980663));
#249=CARTESIAN_POINT('Ctrl Pts',(403.839102835204,826.457382219909,-624.13907299456));
#250=CARTESIAN_POINT('Ctrl Pts',(404.365149927118,826.491401088296,-622.826782225487));
#251=CARTESIAN_POINT('Ctrl Pts',(405.081507651275,826.842501136572,-620.182427906655));
#252=CARTESIAN_POINT('Ctrl Pts',(405.271649140393,827.159738994484,-618.850339343652));
#253=CARTESIAN_POINT('Ctrl Pts',(405.271649139732,828.103572836452,-616.197347706787));
#254=CARTESIAN_POINT('Ctrl Pts',(405.062969322461,828.731876865773,-614.914589606392));
#255=CARTESIAN_POINT('Ctrl Pts',(404.285803092195,830.207317319659,-612.565361614065));
#256=CARTESIAN_POINT('Ctrl Pts',(403.717342544738,831.054431686972,-611.498869312402));
#257=CARTESIAN_POINT('Ctrl Pts',(402.315672483807,832.873395407352,-609.621118317202));
#258=CARTESIAN_POINT('Ctrl Pts',(401.481230856622,833.846979152783,-608.807798677125));
#259=CARTESIAN_POINT('Ctrl Pts',(399.665002870579,835.818375148552,-607.438805939998));
#260=CARTESIAN_POINT('Ctrl Pts',(398.68331997959,836.816133018117,-606.882917274059));
#261=CARTESIAN_POINT('Ctrl Pts',(396.553467218899,838.881398825308,-605.930159315212));
#262=CARTESIAN_POINT('Ctrl Pts',(395.317043911634,840.019266430163,-605.534122523852));
#263=CARTESIAN_POINT('Ctrl Pts',(392.752496029407,842.260127701073,-604.967158386779));
#264=CARTESIAN_POINT('Ctrl Pts',(391.42504760131,843.363910121813,-604.796290567808));
#265=CARTESIAN_POINT('Ctrl Pts',(388.76702295122,845.432349081317,-604.635874087372));
#266=CARTESIAN_POINT('Ctrl Pts',(387.453379845342,846.393891156525,-604.647071340918));
#267=CARTESIAN_POINT('Ctrl Pts',(385.469352564328,847.618836904688,-604.730124858951));
#268=CARTESIAN_POINT('Ctrl Pts',(384.810926314601,847.988799129701,-604.768640836449));
#269=CARTESIAN_POINT('Ctrl Pts',(383.777759265276,848.435822022138,-604.824101009334));
#270=CARTESIAN_POINT('Ctrl Pts',(383.426284119361,848.566102978334,-604.842073211028));
#271=CARTESIAN_POINT('Ctrl Pts',(382.68870716871,848.761327680545,-604.870190286885));
#272=CARTESIAN_POINT('Ctrl Pts',(382.302843917399,848.827164659618,-604.880383390633));
#273=CARTESIAN_POINT('Ctrl Pts',(381.884223802151,848.827164660143,-604.88038339278));
#274=CARTESIAN_POINT('Origin',(461.2411395616,845.89817995518,-624.0580014298));
#275=CARTESIAN_POINT('',(374.613433121556,828.650973168881,-632.938843627715));
#276=CARTESIAN_POINT('Ctrl Pts',(383.278200177615,842.671784246644,-604.928172502036));
#277=CARTESIAN_POINT('Ctrl Pts',(382.404883746201,842.67178424774,-604.928172506514));
#278=CARTESIAN_POINT('Ctrl Pts',(381.530635571441,842.537621973052,-604.949385195913));
#279=CARTESIAN_POINT('Ctrl Pts',(379.841146923068,842.008306727173,-605.050070320608));
#280=CARTESIAN_POINT('Ctrl Pts',(379.025223682192,841.615480913651,-605.130304110861));
#281=CARTESIAN_POINT('Ctrl Pts',(376.715020626399,840.193058041757,-605.490066618834));
#282=CARTESIAN_POINT('Ctrl Pts',(375.344948036799,838.92591576029,-605.905252038616));
#283=CARTESIAN_POINT('Ctrl Pts',(373.329624500606,836.770681827935,-606.907489308981));
#284=CARTESIAN_POINT('Ctrl Pts',(372.503932765321,835.761426877849,-607.4722297038));
#285=CARTESIAN_POINT('Ctrl Pts',(371.034765326872,833.767807313487,-608.86933305211));
#286=CARTESIAN_POINT('Ctrl Pts',(370.391473724921,832.783401561876,-609.701830891731));
#287=CARTESIAN_POINT('Ctrl Pts',(369.340894587779,830.962232503367,-611.607517636209));
#288=CARTESIAN_POINT('Ctrl Pts',(368.932595670361,830.123225137139,-612.683207020585));
#289=CARTESIAN_POINT('Ctrl Pts',(368.386584897791,828.681800800868,-615.011928359482));
#290=CARTESIAN_POINT('Ctrl Pts',(368.249085290399,828.0794800643,-616.265069638493));
#291=CARTESIAN_POINT('Ctrl Pts',(368.24908527405,827.161333918795,-618.8458565165));
#292=CARTESIAN_POINT('Ctrl Pts',(368.386584867554,826.836849503077,-620.197841441868));
#293=CARTESIAN_POINT('Ctrl Pts',(368.932595612827,826.483604986631,-622.913695943848));
#294=CARTESIAN_POINT('Ctrl Pts',(369.340894516837,826.454701227709,-624.277589500582));
#295=CARTESIAN_POINT('Ctrl Pts',(370.39147362322,826.663057798854,-626.905304566969));
#296=CARTESIAN_POINT('Ctrl Pts',(371.034765207801,826.900478691642,-628.172482029561));
#297=CARTESIAN_POINT('Ctrl Pts',(372.503932602635,827.5637514721,-630.514806996684));
#298=CARTESIAN_POINT('Ctrl Pts',(373.329624311611,827.989550061616,-631.590085060966));
#299=CARTESIAN_POINT('Ctrl Pts',(375.344947812564,829.027515461309,-633.728341686108));
#300=CARTESIAN_POINT('Ctrl Pts',(376.715020394034,829.747712479685,-634.850547144621));
#301=CARTESIAN_POINT('Ctrl Pts',(379.025223448977,830.623303812361,-636.027856046587));
#302=CARTESIAN_POINT('Ctrl Pts',(379.841146692492,830.877189310682,-636.338165219861));
#303=CARTESIAN_POINT('Ctrl Pts',(381.530635366948,831.223979060842,-636.750535305937));
#304=CARTESIAN_POINT('Ctrl Pts',(382.404883565752,831.314598191627,-636.851716699583));
#305=CARTESIAN_POINT('Ctrl Pts',(384.588540382088,831.314598188887,-636.851716688386));
#306=CARTESIAN_POINT('Ctrl Pts',(385.853170705316,831.120423937857,-636.635203255868));
#307=CARTESIAN_POINT('Ctrl Pts',(388.319389152528,830.545635682907,-635.926761037611));
#308=CARTESIAN_POINT('Ctrl Pts',(389.520623466478,830.166218262989,-635.432631993778));
#309=CARTESIAN_POINT('Ctrl Pts',(391.849740748248,829.367518955775,-634.237099008031));
#310=CARTESIAN_POINT('Ctrl Pts',(392.974371904863,828.948318950114,-633.535268204638));
#311=CARTESIAN_POINT('Ctrl Pts',(395.096959515537,828.16828944521,-631.980586583711));
#312=CARTESIAN_POINT('Ctrl Pts',(396.094348838079,827.807205210473,-631.127089406151));
#313=CARTESIAN_POINT('Ctrl Pts',(397.822594551595,827.233226263782,-629.416686094179));
#314=CARTESIAN_POINT('Ctrl Pts',(398.630329579087,826.988677617794,-628.506703091875));
#315=CARTESIAN_POINT('Ctrl Pts',(400.109210230876,826.631455203043,-626.538634667097));
#316=CARTESIAN_POINT('Ctrl Pts',(400.780294697205,826.51910492795,-625.480444586326));
#317=CARTESIAN_POINT('Ctrl Pts',(401.896645307837,826.48259089376,-623.279007864063));
#318=CARTESIAN_POINT('Ctrl Pts',(402.342872967941,826.558735294119,-622.13317066044));
#319=CARTESIAN_POINT('Ctrl Pts',(402.946219594301,826.928413670326,-619.83105700487));
#320=CARTESIAN_POINT('Ctrl Pts',(403.103072711132,827.22220617574,-618.674752408359));
#321=CARTESIAN_POINT('Ctrl Pts',(403.103072710574,828.018607632725,-616.436173634195));
#322=CARTESIAN_POINT('Ctrl Pts',(402.94621959728,828.52113492634,-615.354128977558));
#323=CARTESIAN_POINT('Ctrl Pts',(402.342872979137,829.688504884805,-613.335803776343));
#324=CARTESIAN_POINT('Ctrl Pts',(401.896645323734,830.353164885958,-612.399338127353));
#325=CARTESIAN_POINT('Ctrl Pts',(400.780294720284,831.771871867203,-610.715613905077));
#326=CARTESIAN_POINT('Ctrl Pts',(400.109210256364,832.527316093448,-609.966152225193));
#327=CARTESIAN_POINT('Ctrl Pts',(398.630329605504,834.04727779739,-608.665914777606));
#328=CARTESIAN_POINT('Ctrl Pts',(397.82259457653,834.811610569384,-608.114853553513));
#329=CARTESIAN_POINT('Ctrl Pts',(396.094348870952,836.336887001511,-607.151285770362));
#330=CARTESIAN_POINT('Ctrl Pts',(395.096959559249,837.155894756133,-606.717620615269));
#331=CARTESIAN_POINT('Ctrl Pts',(392.974371966624,838.742571584828,-606.004923443225));
#332=CARTESIAN_POINT('Ctrl Pts',(391.849740817079,839.510846388748,-605.725551187189));
#333=CARTESIAN_POINT('Ctrl Pts',(389.520623545457,840.885164610236,-605.303095511696));
#334=CARTESIAN_POINT('Ctrl Pts',(388.319389232345,841.491414144386,-605.159629428581));
#335=CARTESIAN_POINT('Ctrl Pts',(385.853170796759,842.384492995792,-604.97339872924));
#336=CARTESIAN_POINT('Ctrl Pts',(384.588540483161,842.671784245,-604.928172495317));
#337=CARTESIAN_POINT('Ctrl Pts',(383.278200177615,842.671784246644,-604.928172502036));
#338=CARTESIAN_POINT('Origin',(380.99999927454,845.89818015147,-624.058002232));
#339=CARTESIAN_POINT('',(546.014795572113,158.679924972445,-394.589008665993));
#340=CARTESIAN_POINT('',(371.940461732304,839.098492779767,-636.656161558184));
#341=CARTESIAN_POINT('Ctrl Pts',(556.521798984567,165.500436007373,-364.016266255029));
#342=CARTESIAN_POINT('Ctrl Pts',(555.211458660734,165.500436007373,-364.016266255029));
#343=CARTESIAN_POINT('Ctrl Pts',(553.946828343384,165.6946102321,-364.23277966938));
#344=CARTESIAN_POINT('Ctrl Pts',(551.480609903753,166.269398427642,-364.941221854843));
#345=CARTESIAN_POINT('Ctrl Pts',(550.279375590909,166.648815813455,-365.43535088279));
#346=CARTESIAN_POINT('Ctrl Pts',(547.95025831552,167.447515053352,-366.630883837744));
#347=CARTESIAN_POINT('Ctrl Pts',(546.825627163042,167.866715025696,-367.332714626328));
#348=CARTESIAN_POINT('Ctrl Pts',(544.703039562628,168.646744467326,-368.88739621742));
#349=CARTESIAN_POINT('Ctrl Pts',(543.705650246137,169.007828672001,-369.740893379929));
#350=CARTESIAN_POINT('Ctrl Pts',(541.977404537375,169.58180756788,-371.451296669061));
#351=CARTESIAN_POINT('Ctrl Pts',(541.169669509407,169.826356190299,-372.361279664206));
#352=CARTESIAN_POINT('Ctrl Pts',(539.690788858825,170.183578557582,-374.32934807364));
#353=CARTESIAN_POINT('Ctrl Pts',(539.019704394177,170.29592880875,-375.387538146224));
#354=CARTESIAN_POINT('Ctrl Pts',(537.903353788142,170.332442795916,-377.588974849934));
#355=CARTESIAN_POINT('Ctrl Pts',(537.457126130916,170.25629837238,-378.734812043291));
#356=CARTESIAN_POINT('Ctrl Pts',(536.853779509504,169.886619952498,-381.036925674966));
#357=CARTESIAN_POINT('Ctrl Pts',(536.696926394754,169.59282742657,-382.193230257843));
#358=CARTESIAN_POINT('Ctrl Pts',(536.696926394757,168.796425928946,-384.431809015851));
#359=CARTESIAN_POINT('Ctrl Pts',(536.853779509512,168.293898612265,-385.513853669585));
#360=CARTESIAN_POINT('Ctrl Pts',(537.457126130934,167.126528609034,-387.532178862131));
#361=CARTESIAN_POINT('Ctrl Pts',(537.903353788165,166.461868586165,-388.468644505349));
#362=CARTESIAN_POINT('Ctrl Pts',(539.019704394208,165.043161562975,-390.152368714978));
#363=CARTESIAN_POINT('Ctrl Pts',(539.69078885886,164.287717316503,-390.901830387872));
#364=CARTESIAN_POINT('Ctrl Pts',(541.169669509448,162.767755573333,-392.202067821284));
#365=CARTESIAN_POINT('Ctrl Pts',(541.977404537418,162.003422782315,-392.753129038178));
#366=CARTESIAN_POINT('Ctrl Pts',(543.705650246187,160.478146305062,-393.716696810781));
#367=CARTESIAN_POINT('Ctrl Pts',(544.703039562683,159.659138522952,-394.150361960576));
#368=CARTESIAN_POINT('Ctrl Pts',(546.825627163107,158.072461637611,-394.863059120046));
#369=CARTESIAN_POINT('Ctrl Pts',(547.950258315589,157.304186804433,-395.14243136876));
#370=CARTESIAN_POINT('Ctrl Pts',(550.279375590984,155.92986852381,-395.564887030147));
#371=CARTESIAN_POINT('Ctrl Pts',(551.48060990383,155.32361895975,-395.708353106337));
#372=CARTESIAN_POINT('Ctrl Pts',(553.946828343466,154.430540055438,-395.894583798265));
#373=CARTESIAN_POINT('Ctrl Pts',(555.21145866082,154.143248781761,-395.939810032034));
#374=CARTESIAN_POINT('Ctrl Pts',(557.6324726987,154.143248781761,-395.939810032034));
#375=CARTESIAN_POINT('Ctrl Pts',(558.70945076637,154.360227363111,-395.906265888156));
#376=CARTESIAN_POINT('Ctrl Pts',(560.747490113402,155.156378108992,-395.745433037046));
#377=CARTESIAN_POINT('Ctrl Pts',(561.71059885966,155.729930918967,-395.616333300854));
#378=CARTESIAN_POINT('Ctrl Pts',(563.510981896837,157.065492510519,-395.222988165091));
#379=CARTESIAN_POINT('Ctrl Pts',(564.351266786047,157.827866639185,-394.957571550168));
#380=CARTESIAN_POINT('Ctrl Pts',(565.896743925356,159.404010392784,-394.27610005142));
#381=CARTESIAN_POINT('Ctrl Pts',(566.601527298164,160.218007872609,-393.859645028133));
#382=CARTESIAN_POINT('Ctrl Pts',(567.866863808859,161.804570424813,-392.89413498331));
#383=CARTESIAN_POINT('Ctrl Pts',(568.470464229634,162.635959001787,-392.306804064136));
#384=CARTESIAN_POINT('Ctrl Pts',(569.543424977333,164.25829227253,-390.934249902935));
#385=CARTESIAN_POINT('Ctrl Pts',(570.01282789545,165.049065458185,-390.148857247078));
#386=CARTESIAN_POINT('Ctrl Pts',(570.77459935923,166.506440688462,-388.412127890778));
#387=CARTESIAN_POINT('Ctrl Pts',(571.06765185272,167.174475449718,-387.458775065081));
#388=CARTESIAN_POINT('Ctrl Pts',(571.455885991323,168.32813450871,-385.444468953217));
#389=CARTESIAN_POINT('Ctrl Pts',(571.550913799015,168.813641351205,-384.383418752026));
#390=CARTESIAN_POINT('Ctrl Pts',(571.550913799012,169.57561200431,-382.241620521669));
#391=CARTESIAN_POINT('Ctrl Pts',(571.455885991318,169.869340786065,-381.112342953348));
#392=CARTESIAN_POINT('Ctrl Pts',(571.067651852711,170.247110979415,-378.82200498317));
#393=CARTESIAN_POINT('Ctrl Pts',(570.774599359219,170.331304664918,-377.660943625698));
#394=CARTESIAN_POINT('Ctrl Pts',(570.012827895437,170.298288335638,-375.393989426603));
#395=CARTESIAN_POINT('Ctrl Pts',(569.543424977317,170.181240885127,-374.285628587645));
#396=CARTESIAN_POINT('Ctrl Pts',(568.470464229614,169.790323574441,-372.196836155898));
#397=CARTESIAN_POINT('Ctrl Pts',(567.866863808836,169.516693684922,-371.216381537835));
#398=CARTESIAN_POINT('Ctrl Pts',(566.601527298134,168.896426071831,-369.465764941664));
#399=CARTESIAN_POINT('Ctrl Pts',(565.896743925319,168.528356699784,-368.628775323495));
#400=CARTESIAN_POINT('Ctrl Pts',(564.351266785997,167.736771949655,-367.104955741361));
#401=CARTESIAN_POINT('Ctrl Pts',(563.510981896778,167.313332637076,-366.417671637023));
#402=CARTESIAN_POINT('Ctrl Pts',(561.710598859584,166.526295858048,-365.26918643075));
#403=CARTESIAN_POINT('Ctrl Pts',(560.747490113315,166.163154859709,-364.80684653087));
#404=CARTESIAN_POINT('Ctrl Pts',(558.709450766269,165.647474665523,-364.179313939336));
#405=CARTESIAN_POINT('Ctrl Pts',(557.632472698596,165.500436007373,-364.016266255029));
#406=CARTESIAN_POINT('Ctrl Pts',(556.521798984567,165.500436007373,-364.016266255029));
#407=CARTESIAN_POINT('Origin',(639.04114002233,150.91685367621,-376.8099805863));
#408=CARTESIAN_POINT('',(0.,0.,0.));
#409=UNCERTAINTY_MEASURE_WITH_UNIT(LENGTH_MEASURE(0.01),#415,
'DISTANCE_ACCURACY_VALUE',
'Maximum model space distance between geometric entities at asserted c
onnectivities');
#410=UNCERTAINTY_MEASURE_WITH_UNIT(LENGTH_MEASURE(0.01),#415,
'DISTANCE_ACCURACY_VALUE',
'Maximum model space distance between geometric entities at asserted c
onnectivities');
#411=UNCERTAINTY_MEASURE_WITH_UNIT(LENGTH_MEASURE(0.01),#415,
'DISTANCE_ACCURACY_VALUE',
'Maximum model space distance between geometric entities at asserted c
onnectivities');
#412=(
GEOMETRIC_REPRESENTATION_CONTEXT(3)
GLOBAL_UNCERTAINTY_ASSIGNED_CONTEXT((#409))
GLOBAL_UNIT_ASSIGNED_CONTEXT((#415,#417,#418))
REPRESENTATION_CONTEXT('','3D')
);
#413=(
GEOMETRIC_REPRESENTATION_CONTEXT(3)
GLOBAL_UNCERTAINTY_ASSIGNED_CONTEXT((#410))
GLOBAL_UNIT_ASSIGNED_CONTEXT((#415,#417,#418))
REPRESENTATION_CONTEXT('','3D')
);
#414=(
GEOMETRIC_REPRESENTATION_CONTEXT(3)
GLOBAL_UNCERTAINTY_ASSIGNED_CONTEXT((#411))
GLOBAL_UNIT_ASSIGNED_CONTEXT((#415,#417,#418))
REPRESENTATION_CONTEXT('','3D')
);
#415=(
LENGTH_UNIT()
NAMED_UNIT(*)
SI_UNIT(.MILLI.,.METRE.)
);
#416=(
LENGTH_UNIT()
NAMED_UNIT(*)
SI_UNIT($,.METRE.)
);
#417=(
NAMED_UNIT(*)
PLANE_ANGLE_UNIT()
SI_UNIT($,.RADIAN.)
);
#418=(
NAMED_UNIT(*)
SI_UNIT($,.STERADIAN.)
SOLID_ANGLE_UNIT()
);
#419=SHAPE_DEFINITION_REPRESENTATION(#421,#424);
#420=SHAPE_DEFINITION_REPRESENTATION(#422,#425);
#421=PRODUCT_DEFINITION_SHAPE('',$,#427);
#422=PRODUCT_DEFINITION_SHAPE('',$,#428);
#423=PRODUCT_DEFINITION_SHAPE($,$,#14);
#424=SHAPE_REPRESENTATION('',(#87,#93),#412);
#425=SHAPE_REPRESENTATION('',(#88),#413);
#426=PRODUCT_DEFINITION_CONTEXT('part definition',#434,'design');
#427=PRODUCT_DEFINITION('coped','gline cage24 fishmouth',#429,#426);
#428=PRODUCT_DEFINITION('back angle bar','back angle bar',#430,#426);
#429=PRODUCT_DEFINITION_FORMATION('',$,#436);
#430=PRODUCT_DEFINITION_FORMATION('',$,#437);
#431=PRODUCT_RELATED_PRODUCT_CATEGORY('gline cage24 fishmouth',
'gline cage24 fishmouth',(#436));
#432=PRODUCT_RELATED_PRODUCT_CATEGORY('back angle bar','back angle bar',
(#437));
#433=APPLICATION_PROTOCOL_DEFINITION('international standard',
'automotive_design',2009,#434);
#434=APPLICATION_CONTEXT(
'Core Data for Automotive Mechanical Design Process');
#435=PRODUCT_CONTEXT('part definition',#434,'mechanical');
#436=PRODUCT('coped','gline cage24 fishmouth','FreeCAD Model',(#435));
#437=PRODUCT('back angle bar','back angle bar',$,(#435));
#438=PRESENTATION_STYLE_ASSIGNMENT((#439));
#439=SURFACE_STYLE_USAGE(.BOTH.,#440);
#440=SURFACE_SIDE_STYLE('',(#441));
#441=SURFACE_STYLE_FILL_AREA(#442);
#442=FILL_AREA_STYLE('Steel - Satin',(#443));
#443=FILL_AREA_STYLE_COLOUR('Steel - Satin',#444);
#444=COLOUR_RGB('Steel - Satin',0.627450980392157,0.627450980392157,0.627450980392157);
ENDSEC;
END-ISO-10303-21;
