ISO-10303-21;
HEADER;
/* Generated by software containing ST-Developer
 * from STEP Tools, Inc. (www.steptools.com) 
 */

FILE_DESCRIPTION(
/* description */ ('FreeCAD Model'),
/* implementation_level */ '2;1');

FILE_NAME(
/* name */ 'head bar.step',
/* time_stamp */ '2026-09-06T17:16:44-04:00',
/* author */ (''),
/* organization */ (''),
/* preprocessor_version */ 'ST-DEVELOPER v20.1',
/* originating_system */ 'Autodesk Translation Framework v15.8.0.0',
/* authorisation */ '');

FILE_SCHEMA (('AUTOMOTIVE_DESIGN { 1 0 10303 214 3 1 1 }'));
ENDSEC;

DATA;
#10=MECHANICAL_DESIGN_GEOMETRIC_PRESENTATION_REPRESENTATION('',(#17),#706);
#11=ITEM_DEFINED_TRANSFORMATION($,$,#98,#103);
#12=(
REPRESENTATION_RELATIONSHIP($,$,#717,#716)
REPRESENTATION_RELATIONSHIP_WITH_TRANSFORMATION(#11)
SHAPE_REPRESENTATION_RELATIONSHIP()
);
#13=CONTEXT_DEPENDENT_SHAPE_REPRESENTATION(#12,#715);
#14=NEXT_ASSEMBLY_USAGE_OCCURRENCE('head bar:1','head bar:1',
'head bar:1',#719,#720,'head bar:1');
#15=SHAPE_REPRESENTATION_RELATIONSHIP('SRR','None',#717,#16);
#16=ADVANCED_BREP_SHAPE_REPRESENTATION('',(#18),#705);
#17=STYLED_ITEM('',(#730),#18);
#18=MANIFOLD_SOLID_BREP('Body1',#84);
#19=FACE_BOUND('',#27,.T.);
#20=FACE_BOUND('',#29,.T.);
#21=FACE_OUTER_BOUND('',#25,.T.);
#22=FACE_OUTER_BOUND('',#26,.T.);
#23=FACE_OUTER_BOUND('',#28,.T.);
#24=FACE_OUTER_BOUND('',#30,.T.);
#25=EDGE_LOOP('',(#58,#59,#60,#61,#62,#63));
#26=EDGE_LOOP('',(#64,#65));
#27=EDGE_LOOP('',(#66,#67));
#28=EDGE_LOOP('',(#68,#69));
#29=EDGE_LOOP('',(#70));
#30=EDGE_LOOP('',(#71,#72,#73,#74,#75));
#31=LINE('',#340,#33);
#32=LINE('',#699,#34);
#33=VECTOR('',#110,22.225);
#34=VECTOR('',#117,19.812);
#35=B_SPLINE_CURVE_WITH_KNOTS('',8,(#125,#126,#127,#128,#129,#130,#131,
#132,#133,#134,#135,#136,#137,#138,#139,#140,#141,#142,#143,#144,#145,#146,
#147,#148,#149,#150,#151,#152,#153,#154,#155,#156,#157,#158,#159,#160,#161,
#162,#163,#164,#165,#166,#167,#168,#169,#170,#171,#172,#173,#174,#175,#176,
#177,#178,#179,#180,#181,#182,#183,#184,#185,#186,#187,#188,#189,#190,#191,
#192,#193,#194,#195,#196,#197,#198,#199,#200,#201,#202,#203,#204,#205,#206,
#207,#208,#209,#210,#211,#212,#213,#214,#215,#216,#217,#218,#219,#220,#221,
#222,#223,#224,#225,#226,#227,#228,#229,#230,#231),.UNSPECIFIED.,.F.,.F.,
(9,7,7,7,7,7,7,7,7,7,7,7,7,7,7,9),(0.,0.02909566589604,0.06681126071562,
0.148046754121,0.261126162408,0.387825792965,0.437141397711,0.472631870382,
0.498971046785,0.534817212449,0.590732673866,0.647134651899,0.752595543821,
0.850633618803,0.945248151101,1.),.UNSPECIFIED.);
#36=B_SPLINE_CURVE_WITH_KNOTS('',8,(#232,#233,#234,#235,#236,#237,#238,
#239,#240,#241,#242,#243,#244,#245,#246,#247,#248,#249,#250,#251,#252,#253,
#254,#255,#256,#257,#258,#259,#260,#261,#262,#263,#264,#265,#266,#267,#268,
#269,#270,#271,#272,#273,#274,#275,#276,#277,#278,#279,#280,#281,#282,#283,
#284,#285,#286,#287,#288,#289,#290,#291,#292,#293,#294,#295,#296,#297,#298,
#299,#300,#301,#302,#303,#304,#305,#306,#307,#308,#309,#310,#311,#312,#313,
#314,#315,#316,#317,#318,#319,#320,#321,#322,#323,#324,#325,#326,#327,#328,
#329,#330,#331,#332,#333,#334,#335,#336,#337,#338),.UNSPECIFIED.,.F.,.F.,
(9,7,7,7,7,7,7,7,7,7,7,7,7,7,7,9),(0.,0.02909603622756,0.06681300029095,
0.148050848266,0.261133924978,0.387841568025,0.437139344427,0.472630192654,
0.498969802451,0.534816551694,0.590733314969,0.64713720968,0.752601147249,
0.850642173075,0.945263603135,1.),.UNSPECIFIED.);
#37=B_SPLINE_CURVE_WITH_KNOTS('',8,(#342,#343,#344,#345,#346,#347,#348,
#349,#350,#351,#352,#353,#354,#355,#356,#357,#358,#359,#360,#361,#362,#363,
#364,#365,#366,#367,#368,#369,#370,#371,#372,#373,#374,#375,#376,#377,#378,
#379,#380,#381,#382,#383,#384,#385,#386,#387,#388,#389,#390,#391,#392,#393,
#394,#395,#396,#397,#398,#399,#400,#401,#402,#403,#404,#405,#406,#407,#408,
#409,#410,#411,#412,#413,#414,#415,#416,#417,#418,#419,#420,#421,#422,#423,
#424,#425,#426,#427,#428,#429,#430,#431,#432,#433,#434,#435,#436,#437,#438,
#439,#440,#441,#442,#443,#444,#445,#446,#447,#448),.UNSPECIFIED.,.F.,.F.,
(9,7,7,7,7,7,7,7,7,7,7,7,7,7,7,9),(0.,0.02909566591633,0.06681122064952,
0.148046666763,0.261126030296,0.387825599484,0.437141314443,0.472631774287,
0.498970948458,0.534817120657,0.590732589153,0.647134573607,0.752595486086,
0.850633588369,0.945248195486,1.),.UNSPECIFIED.);
#38=B_SPLINE_CURVE_WITH_KNOTS('',8,(#449,#450,#451,#452,#453,#454,#455,
#456,#457,#458,#459,#460,#461,#462,#463,#464,#465,#466,#467,#468,#469,#470,
#471,#472,#473,#474,#475,#476,#477,#478,#479,#480,#481,#482,#483,#484,#485,
#486,#487,#488,#489,#490,#491,#492,#493,#494,#495,#496,#497,#498,#499,#500,
#501,#502,#503,#504,#505,#506,#507,#508,#509,#510,#511,#512,#513,#514,#515,
#516,#517,#518,#519,#520,#521,#522,#523,#524,#525,#526,#527,#528,#529,#530,
#531,#532,#533,#534,#535,#536,#537,#538,#539,#540,#541,#542,#543,#544,#545,
#546,#547,#548,#549,#550,#551,#552,#553,#554,#555),.UNSPECIFIED.,.F.,.F.,
(9,7,7,7,7,7,7,7,7,7,7,7,7,7,7,9),(0.,0.02909603565046,0.06681304026347,
0.148050936733,0.261134060118,0.387841768125,0.437139426551,0.47263028753,
0.498969899531,0.534816642203,0.590733397629,0.647137288325,0.752601207587,
0.850642208771,0.945263568142,1.),.UNSPECIFIED.);
#39=B_SPLINE_CURVE_WITH_KNOTS('',3,(#559,#560,#561,#562,#563,#564,#565,
#566,#567,#568,#569,#570,#571,#572,#573,#574,#575,#576,#577,#578,#579,#580,
#581,#582,#583,#584,#585,#586,#587,#588,#589,#590,#591,#592,#593,#594,#595),
 .UNSPECIFIED.,.F.,.F.,(4,2,2,2,2,2,2,2,2,2,2,2,2,2,2,2,3,4),(-6.58396008149838,
-6.15996289515009,-5.73596570880179,-5.3119685224535,-4.8879713361052,-4.48897352428565,
-4.08997571246609,-3.69097790064654,-3.29198008882698,-2.89298226725676,
-2.49398444568654,-2.09498662411631,-1.69598880254609,-1.27199160190954,
-0.847994401272981,-0.423997200636426,1.28785870856518E-13,1.30226079916709E-6),
 .UNSPECIFIED.);
#40=B_SPLINE_CURVE_WITH_KNOTS('',3,(#596,#597,#598,#599,#600,#601,#602,
#603,#604,#605,#606,#607,#608,#609,#610,#611,#612,#613,#614,#615,#616,#617,
#618,#619,#620,#621,#622,#623,#624,#625,#626,#627,#628,#629),
 .UNSPECIFIED.,.F.,.F.,(4,2,2,2,2,2,2,2,2,2,2,2,2,2,2,2,4),(1.30226079919675E-6,
0.423990433796083,0.847980867592169,1.27197130138825,1.69596173518434,2.09495964895514,
2.49395756272594,2.89295547649674,3.29195339026754,3.69095129428772,4.08994919830789,
4.48894710232806,4.88794500634824,5.31193542585691,5.73592584536557,6.15991626487424,
6.58390668438291),.UNSPECIFIED.);
#41=B_SPLINE_CURVE_WITH_KNOTS('',3,(#632,#633,#634,#635,#636,#637,#638,
#639,#640,#641,#642,#643,#644,#645,#646,#647,#648,#649,#650,#651,#652,#653,
#654,#655,#656,#657,#658,#659,#660,#661,#662,#663,#664,#665,#666,#667,#668,
#669,#670,#671,#672,#673,#674,#675,#676,#677,#678,#679,#680,#681,#682,#683,
#684,#685,#686,#687,#688,#689,#690,#691,#692,#693,#694,#695,#696,#697),
 .UNSPECIFIED.,.T.,.F.,(4,2,2,2,2,2,2,2,2,2,2,2,2,2,2,2,2,2,2,2,2,2,2,2,
2,2,2,2,2,2,2,2,4),(0.,0.423997242576575,0.84799448515315,1.27199172772972,
1.6959889703063,2.09498683134381,2.49398469238133,2.89298255341884,3.29198041445636,
3.69097826574383,4.08997611703131,4.48897396831879,4.88797181960627,5.31196904789549,
5.73596627618471,6.15996350447393,6.58396073276315,7.00795234617395,7.43194395958475,
7.85593557299555,8.27992718640635,8.67892395074815,9.07792071508996,9.47691747943176,
9.87591424377356,10.27491101472,10.6739077856665,11.0729045566129,11.4719013275594,
11.8958929585517,12.3198845895441,12.7438762205364,13.1678678515287),
 .UNSPECIFIED.);
#42=VERTEX_POINT('',#123);
#43=VERTEX_POINT('',#124);
#44=VERTEX_POINT('',#339);
#45=VERTEX_POINT('',#341);
#46=VERTEX_POINT('',#557);
#47=VERTEX_POINT('',#558);
#48=VERTEX_POINT('',#631);
#49=EDGE_CURVE('',#42,#43,#35,.T.);
#50=EDGE_CURVE('',#43,#42,#36,.T.);
#51=EDGE_CURVE('',#43,#44,#31,.T.);
#52=EDGE_CURVE('',#44,#45,#37,.T.);
#53=EDGE_CURVE('',#45,#44,#38,.T.);
#54=EDGE_CURVE('',#46,#47,#39,.T.);
#55=EDGE_CURVE('',#47,#46,#40,.T.);
#56=EDGE_CURVE('',#48,#48,#41,.T.);
#57=EDGE_CURVE('',#48,#47,#32,.T.);
#58=ORIENTED_EDGE('',*,*,#49,.F.);
#59=ORIENTED_EDGE('',*,*,#50,.F.);
#60=ORIENTED_EDGE('',*,*,#51,.T.);
#61=ORIENTED_EDGE('',*,*,#52,.T.);
#62=ORIENTED_EDGE('',*,*,#53,.T.);
#63=ORIENTED_EDGE('',*,*,#51,.F.);
#64=ORIENTED_EDGE('',*,*,#50,.T.);
#65=ORIENTED_EDGE('',*,*,#49,.T.);
#66=ORIENTED_EDGE('',*,*,#54,.F.);
#67=ORIENTED_EDGE('',*,*,#55,.F.);
#68=ORIENTED_EDGE('',*,*,#53,.F.);
#69=ORIENTED_EDGE('',*,*,#52,.F.);
#70=ORIENTED_EDGE('',*,*,#56,.T.);
#71=ORIENTED_EDGE('',*,*,#56,.F.);
#72=ORIENTED_EDGE('',*,*,#57,.T.);
#73=ORIENTED_EDGE('',*,*,#55,.T.);
#74=ORIENTED_EDGE('',*,*,#54,.T.);
#75=ORIENTED_EDGE('',*,*,#57,.F.);
#76=CYLINDRICAL_SURFACE('',#99,22.225);
#77=CYLINDRICAL_SURFACE('',#100,22.575);
#78=CYLINDRICAL_SURFACE('',#101,22.575);
#79=CYLINDRICAL_SURFACE('',#102,19.812);
#80=ADVANCED_FACE('',(#21),#76,.T.);
#81=ADVANCED_FACE('',(#22,#19),#77,.F.);
#82=ADVANCED_FACE('',(#23,#20),#78,.F.);
#83=ADVANCED_FACE('',(#24),#79,.F.);
#84=CLOSED_SHELL('',(#80,#81,#82,#83));
#85=DERIVED_UNIT_ELEMENT(#87,1.);
#86=DERIVED_UNIT_ELEMENT(#708,-3.);
#87=(
MASS_UNIT()
NAMED_UNIT(*)
SI_UNIT(.KILO.,.GRAM.)
);
#88=DERIVED_UNIT((#85,#86));
#89=MEASURE_REPRESENTATION_ITEM('density measure',
POSITIVE_RATIO_MEASURE(7850.),#88);
#90=PROPERTY_DEFINITION_REPRESENTATION(#95,#92);
#91=PROPERTY_DEFINITION_REPRESENTATION(#96,#93);
#92=REPRESENTATION('material name',(#94),#705);
#93=REPRESENTATION('density',(#89),#705);
#94=DESCRIPTIVE_REPRESENTATION_ITEM('Steel','Steel');
#95=PROPERTY_DEFINITION('material property','material name',#720);
#96=PROPERTY_DEFINITION('material property','density of part',#720);
#97=AXIS2_PLACEMENT_3D('',#120,#104,#105);
#98=AXIS2_PLACEMENT_3D('',#121,#106,#107);
#99=AXIS2_PLACEMENT_3D('',#122,#108,#109);
#100=AXIS2_PLACEMENT_3D('',#556,#111,#112);
#101=AXIS2_PLACEMENT_3D('',#630,#113,#114);
#102=AXIS2_PLACEMENT_3D('',#698,#115,#116);
#103=AXIS2_PLACEMENT_3D('',#700,#118,#119);
#104=DIRECTION('axis',(0.,0.,1.));
#105=DIRECTION('refdir',(1.,0.,0.));
#106=DIRECTION('axis',(0.,0.,1.));
#107=DIRECTION('refdir',(1.,0.,0.));
#108=DIRECTION('center_axis',(-1.84636124915938E-5,0.0351700253959471,-0.999381343118203));
#109=DIRECTION('ref_axis',(2.39034606186454E-7,0.999381343288677,0.0351700253975302));
#110=DIRECTION('',(1.84636124915938E-5,-0.0351700253959471,0.999381343118203));
#111=DIRECTION('center_axis',(-1.,-7.583594419103E-9,1.065814325685E-9));
#112=DIRECTION('ref_axis',(7.583594419103E-9,-1.,0.));
#113=DIRECTION('center_axis',(-1.,-7.583594419103E-9,1.065814325685E-9));
#114=DIRECTION('ref_axis',(7.583594419103E-9,-1.,0.));
#115=DIRECTION('center_axis',(-1.84636124915938E-5,0.0351700253959471,-0.999381343118203));
#116=DIRECTION('ref_axis',(6.49767684775975E-7,0.999381343288761,0.0351700253899449));
#117=DIRECTION('',(-1.84636124915937E-5,0.0351700253959471,-0.999381343118203));
#118=DIRECTION('',(0.,0.,1.));
#119=DIRECTION('',(1.,0.,0.));
#120=CARTESIAN_POINT('',(0.,0.,0.));
#121=CARTESIAN_POINT('',(0.,0.,0.));
#122=CARTESIAN_POINT('Origin',(380.99999977051,1245.064041095,-174.9823395934));
#123=CARTESIAN_POINT('',(380.99347764137,1279.712429617,-527.6108328196));
#124=CARTESIAN_POINT('',(380.993465190465,1235.289929135,-529.1741468961));
#125=CARTESIAN_POINT('Ctrl Pts',(380.99347764137,1279.712429617,-527.6108328196));
#126=CARTESIAN_POINT('Ctrl Pts',(381.25471452392,1279.712429517,-527.6108323412));
#127=CARTESIAN_POINT('Ctrl Pts',(381.51320642888,1279.70822913,-527.5912710549));
#128=CARTESIAN_POINT('Ctrl Pts',(381.7691391532,1279.699984935,-527.5528685346));
#129=CARTESIAN_POINT('Ctrl Pts',(382.02251279872,1279.687845383,-527.4968033799));
#130=CARTESIAN_POINT('Ctrl Pts',(382.27297963783,1279.671984595,-527.4247419033));
#131=CARTESIAN_POINT('Ctrl Pts',(382.51970796416,1279.65265133,-527.3388592189));
#132=CARTESIAN_POINT('Ctrl Pts',(382.76127192837,1279.630233237,-527.2418527312));
#133=CARTESIAN_POINT('Ctrl Pts',(383.29927553213,1279.573063548,-527.0009640823));
#134=CARTESIAN_POINT('Ctrl Pts',(383.59647431438,1279.536018713,-526.8491552413));
#135=CARTESIAN_POINT('Ctrl Pts',(383.88754389548,1279.494629306,-526.6850925307));
#136=CARTESIAN_POINT('Ctrl Pts',(384.17263246899,1279.449281539,-526.511852012));
#137=CARTESIAN_POINT('Ctrl Pts',(384.45201736511,1279.400312478,-526.3318005595));
#138=CARTESIAN_POINT('Ctrl Pts',(384.72638526784,1279.347936051,-526.1464469265));
#139=CARTESIAN_POINT('Ctrl Pts',(384.99702834443,1279.292135166,-525.9563518603));
#140=CARTESIAN_POINT('Ctrl Pts',(385.84518927864,1279.104216293,-525.3405193928));
#141=CARTESIAN_POINT('Ctrl Pts',(386.41861856865,1278.957853741,-524.8944092676));
#142=CARTESIAN_POINT('Ctrl Pts',(386.98273249877,1278.794853049,-524.4352398762));
#143=CARTESIAN_POINT('Ctrl Pts',(387.53521471512,1278.616771223,-523.9715873613));
#144=CARTESIAN_POINT('Ctrl Pts',(388.0765220198,1278.424702855,-523.5070960346));
#145=CARTESIAN_POINT('Ctrl Pts',(388.60976897637,1278.218258734,-523.0417408859));
#146=CARTESIAN_POINT('Ctrl Pts',(389.13955802149,1277.995594189,-522.5731496773));
#147=CARTESIAN_POINT('Ctrl Pts',(390.41189889138,1277.415598431,-521.4353373033));
#148=CARTESIAN_POINT('Ctrl Pts',(391.14273634655,1277.045942295,-520.7717324673));
#149=CARTESIAN_POINT('Ctrl Pts',(391.86520463009,1276.643145737,-520.109295012));
#150=CARTESIAN_POINT('Ctrl Pts',(392.57981154432,1276.205772511,-519.4495121021));
#151=CARTESIAN_POINT('Ctrl Pts',(393.28658003608,1275.732040322,-518.7938190946));
#152=CARTESIAN_POINT('Ctrl Pts',(393.9849242856,1275.219915682,-518.1437897611));
#153=CARTESIAN_POINT('Ctrl Pts',(394.67369499078,1274.667134531,-517.5013545066));
#154=CARTESIAN_POINT('Ctrl Pts',(396.10999433827,1273.403691547,-516.1603818024));
#155=CARTESIAN_POINT('Ctrl Pts',(396.85242605139,1272.683953166,-515.4664450574));
#156=CARTESIAN_POINT('Ctrl Pts',(397.57918203781,1271.906361106,-514.7873883369));
#157=CARTESIAN_POINT('Ctrl Pts',(398.28884717911,1271.064554386,-514.1253342317));
#158=CARTESIAN_POINT('Ctrl Pts',(398.97765683384,1270.151836124,-513.4845955791));
#159=CARTESIAN_POINT('Ctrl Pts',(399.63928161288,1269.161537336,-512.8719513415));
#160=CARTESIAN_POINT('Ctrl Pts',(400.26453224502,1268.087449734,-512.2969345026));
#161=CARTESIAN_POINT('Ctrl Pts',(401.06540896933,1266.47161604,-511.5679290948));
#162=CARTESIAN_POINT('Ctrl Pts',(401.28274639371,1266.004727486,-511.3709860035));
#163=CARTESIAN_POINT('Ctrl Pts',(401.49217041708,1265.523479783,-511.1822211282));
#164=CARTESIAN_POINT('Ctrl Pts',(401.69276044798,1265.027713962,-511.0025603915));
#165=CARTESIAN_POINT('Ctrl Pts',(401.88353567033,1264.517310053,-510.8329876042));
#166=CARTESIAN_POINT('Ctrl Pts',(402.06345266076,1263.992193323,-510.6745464277));
#167=CARTESIAN_POINT('Ctrl Pts',(402.23140300599,1263.45234052,-510.528342336));
#168=CARTESIAN_POINT('Ctrl Pts',(402.49761999797,1262.498695439,-510.2999753312));
#169=CARTESIAN_POINT('Ctrl Pts',(402.60224573089,1262.091907173,-510.2113294048));
#170=CARTESIAN_POINT('Ctrl Pts',(402.69951243854,1261.677903241,-510.1301613064));
#171=CARTESIAN_POINT('Ctrl Pts',(402.78888607277,1261.257176847,-510.0569841414));
#172=CARTESIAN_POINT('Ctrl Pts',(402.86987414012,1260.830232444,-509.9922695295));
#173=CARTESIAN_POINT('Ctrl Pts',(402.94202562428,1260.397585707,-509.9364475215));
#174=CARTESIAN_POINT('Ctrl Pts',(403.00493090848,1259.959763505,-509.8899065158));
#175=CARTESIAN_POINT('Ctrl Pts',(403.09777134046,1259.188933433,-509.8255980203));
#176=CARTESIAN_POINT('Ctrl Pts',(403.13200978079,1258.858139023,-509.8035164793));
#177=CARTESIAN_POINT('Ctrl Pts',(403.16076928355,1258.525349258,-509.7868999058));
#178=CARTESIAN_POINT('Ctrl Pts',(403.18391500213,1258.190992802,-509.7758670192));
#179=CARTESIAN_POINT('Ctrl Pts',(403.20134497872,1257.85549837,-509.7705039049));
#180=CARTESIAN_POINT('Ctrl Pts',(403.21299014434,1257.519294727,-509.7708640136));
#181=CARTESIAN_POINT('Ctrl Pts',(403.2188143188,1257.182810687,-509.7769681621));
#182=CARTESIAN_POINT('Ctrl Pts',(403.21881406365,1256.388740965,-509.80491318));
#183=CARTESIAN_POINT('Ctrl Pts',(403.20802621877,1255.931614537,-509.8316272502));
#184=CARTESIAN_POINT('Ctrl Pts',(403.18647052996,1255.476112572,-509.8688914625));
#185=CARTESIAN_POINT('Ctrl Pts',(403.15427080141,1255.023242679,-509.9165474662));
#186=CARTESIAN_POINT('Ctrl Pts',(403.11165484846,1254.574003271,-509.9743339093));
#187=CARTESIAN_POINT('Ctrl Pts',(403.05895455853,1254.129383501,-510.0418865072));
#188=CARTESIAN_POINT('Ctrl Pts',(402.99660595189,1253.690363198,-510.1187381121));
#189=CARTESIAN_POINT('Ctrl Pts',(402.81368586023,1252.583345155,-510.3378137451));
#190=CARTESIAN_POINT('Ctrl Pts',(402.68021478679,1251.92569458,-510.4923637478));
#191=CARTESIAN_POINT('Ctrl Pts',(402.52644189799,1251.285824132,-510.666244404));
#192=CARTESIAN_POINT('Ctrl Pts',(402.35410508346,1250.66449972,-510.8577004016));
#193=CARTESIAN_POINT('Ctrl Pts',(402.1649761242,1250.062395008,-511.0649445175));
#194=CARTESIAN_POINT('Ctrl Pts',(401.96086256993,1249.480096317,-511.2861566341));
#195=CARTESIAN_POINT('Ctrl Pts',(401.74360961649,1248.918107532,-511.5194827553));
#196=CARTESIAN_POINT('Ctrl Pts',(401.28460612069,1247.830893067,-512.0087044134));
#197=CARTESIAN_POINT('Ctrl Pts',(401.04217895107,1247.304892912,-512.2652902714));
#198=CARTESIAN_POINT('Ctrl Pts',(400.78917664731,1246.798274967,-512.5314559539));
#199=CARTESIAN_POINT('Ctrl Pts',(400.52679402071,1246.310406968,-512.8060263585));
#200=CARTESIAN_POINT('Ctrl Pts',(400.2560705959,1245.84061581,-513.0879800643));
#201=CARTESIAN_POINT('Ctrl Pts',(399.97789668575,1245.388199389,-513.3764424746));
#202=CARTESIAN_POINT('Ctrl Pts',(399.69301946628,1244.952438459,-513.6706789585));
#203=CARTESIAN_POINT('Ctrl Pts',(398.85799012786,1243.747606865,-514.5299255181));
#204=CARTESIAN_POINT('Ctrl Pts',(398.29180992965,1243.017121721,-515.1086892133));
#205=CARTESIAN_POINT('Ctrl Pts',(397.70811664477,1242.33776668,-515.7017867019));
#206=CARTESIAN_POINT('Ctrl Pts',(397.11037972609,1241.706071004,-516.3057297055));
#207=CARTESIAN_POINT('Ctrl Pts',(396.50103187036,1241.118601443,-516.9180096516));
#208=CARTESIAN_POINT('Ctrl Pts',(395.88156231613,1240.572071397,-517.5369881908));
#209=CARTESIAN_POINT('Ctrl Pts',(395.25258517178,1240.063436711,-518.1617842385));
#210=CARTESIAN_POINT('Ctrl Pts',(394.02010372268,1239.149842335,-519.3781268295));
#211=CARTESIAN_POINT('Ctrl Pts',(393.41873415056,1238.740706701,-519.9681180753));
#212=CARTESIAN_POINT('Ctrl Pts',(392.81064670812,1238.3610116,-520.5608530249));
#213=CARTESIAN_POINT('Ctrl Pts',(392.19641186158,1238.009332054,-521.1552801383));
#214=CARTESIAN_POINT('Ctrl Pts',(391.57625688525,1237.684372885,-521.7504761844));
#215=CARTESIAN_POINT('Ctrl Pts',(390.95011779613,1237.38500227,-522.3455571723));
#216=CARTESIAN_POINT('Ctrl Pts',(390.31766556491,1237.110282765,-522.939459673));
#217=CARTESIAN_POINT('Ctrl Pts',(389.06107322384,1236.617395214,-524.1008457993));
#218=CARTESIAN_POINT('Ctrl Pts',(388.45398832669,1236.404088272,-524.6532102479));
#219=CARTESIAN_POINT('Ctrl Pts',(387.843753247,1236.21160189,-525.1984423373));
#220=CARTESIAN_POINT('Ctrl Pts',(387.21979257862,1236.036453844,-525.7435965503));
#221=CARTESIAN_POINT('Ctrl Pts',(386.5757652452,1235.878394985,-526.2895347178));
#222=CARTESIAN_POINT('Ctrl Pts',(385.9125336426,1235.740163566,-526.8278728156));
#223=CARTESIAN_POINT('Ctrl Pts',(385.23708213083,1235.623564748,-527.3390973845));
#224=CARTESIAN_POINT('Ctrl Pts',(384.16122995334,1235.474290141,-528.0643027919));
#225=CARTESIAN_POINT('Ctrl Pts',(383.74759923793,1235.424561144,-528.3243952285));
#226=CARTESIAN_POINT('Ctrl Pts',(383.31888238324,1235.38148131,-528.5690850736));
#227=CARTESIAN_POINT('Ctrl Pts',(382.87844437332,1235.346149109,-528.787836901));
#228=CARTESIAN_POINT('Ctrl Pts',(382.42824108998,1235.319023689,-528.9693695422));
#229=CARTESIAN_POINT('Ctrl Pts',(381.96754867492,1235.300176677,-529.1020281665));
#230=CARTESIAN_POINT('Ctrl Pts',(381.49194491744,1235.289929139,-529.174146897));
#231=CARTESIAN_POINT('Ctrl Pts',(380.99347066759,1235.289929135,-529.1741468961));
#232=CARTESIAN_POINT('Ctrl Pts',(380.99345971334,1235.289929135,-529.1741468961));
#233=CARTESIAN_POINT('Ctrl Pts',(380.73222363185,1235.289929236,-529.1741461689));
#234=CARTESIAN_POINT('Ctrl Pts',(380.47373206155,1235.292744157,-529.1543378478));
#235=CARTESIAN_POINT('Ctrl Pts',(380.21779941694,1235.298268435,-529.115450423));
#236=CARTESIAN_POINT('Ctrl Pts',(379.96442568296,1235.306436869,-529.0586697897));
#237=CARTESIAN_POINT('Ctrl Pts',(379.71395864939,1235.317192929,-528.9856702544));
#238=CARTESIAN_POINT('Ctrl Pts',(379.46723011638,1235.330441393,-528.8986390246));
#239=CARTESIAN_POINT('Ctrl Pts',(379.22566607135,1235.34598519,-528.8002941821));
#240=CARTESIAN_POINT('Ctrl Pts',(378.68765575867,1235.3860814,-528.5559731924));
#241=CARTESIAN_POINT('Ctrl Pts',(378.39045074438,1235.412364404,-528.4019277074));
#242=CARTESIAN_POINT('Ctrl Pts',(378.09937547226,1235.442120143,-528.2353522748));
#243=CARTESIAN_POINT('Ctrl Pts',(377.81428168782,1235.47517959,-528.0593428123));
#244=CARTESIAN_POINT('Ctrl Pts',(377.53489202436,1235.511372882,-527.876284284));
#245=CARTESIAN_POINT('Ctrl Pts',(377.26051974965,1235.550592663,-527.6876969075));
#246=CARTESIAN_POINT('Ctrl Pts',(376.98987261161,1235.592895408,-527.4941388931));
#247=CARTESIAN_POINT('Ctrl Pts',(376.14170366451,1235.737068042,-526.8665886994));
#248=CARTESIAN_POINT('Ctrl Pts',(375.56827099786,1235.851716086,-526.4112722169));
#249=CARTESIAN_POINT('Ctrl Pts',(375.00415436375,1235.982044357,-525.9417590565));
#250=CARTESIAN_POINT('Ctrl Pts',(374.45166997728,1236.127102512,-525.4667139783));
#251=CARTESIAN_POINT('Ctrl Pts',(373.91036087379,1236.286054813,-524.9898492517));
#252=CARTESIAN_POINT('Ctrl Pts',(373.37711237622,1236.459287824,-524.5111124823));
#253=CARTESIAN_POINT('Ctrl Pts',(372.8473220937,1236.648475024,-524.0280075695));
#254=CARTESIAN_POINT('Ctrl Pts',(371.57497681785,1237.147089561,-522.852187514));
#255=CARTESIAN_POINT('Ctrl Pts',(370.84413661661,1237.469207485,-522.164208949));
#256=CARTESIAN_POINT('Ctrl Pts',(370.12166632989,1237.824469037,-521.4750659263));
#257=CARTESIAN_POINT('Ctrl Pts',(369.40705818317,1238.214411695,-520.7861410331));
#258=CARTESIAN_POINT('Ctrl Pts',(368.70028934743,1238.640914526,-520.0987409456));
#259=CARTESIAN_POINT('Ctrl Pts',(368.00194585819,1239.106116922,-519.414292843));
#260=CARTESIAN_POINT('Ctrl Pts',(367.31317732466,1239.61241336,-518.7345635553));
#261=CARTESIAN_POINT('Ctrl Pts',(365.87686307485,1240.778586542,-517.3080211822));
#262=CARTESIAN_POINT('Ctrl Pts',(365.13441569826,1241.447845127,-516.5651605719));
#263=CARTESIAN_POINT('Ctrl Pts',(364.40764756782,1242.175870555,-515.8330797845));
#264=CARTESIAN_POINT('Ctrl Pts',(363.69797472547,1242.969158766,-515.113449961));
#265=CARTESIAN_POINT('Ctrl Pts',(363.00916339548,1243.834694759,-514.4101041807));
#266=CARTESIAN_POINT('Ctrl Pts',(362.3475452688,1244.779608941,-513.7293383162));
#267=CARTESIAN_POINT('Ctrl Pts',(361.72231272923,1245.810765454,-513.0802287449));
#268=CARTESIAN_POINT('Ctrl Pts',(360.921577946,1247.37139734,-512.2395475116));
#269=CARTESIAN_POINT('Ctrl Pts',(360.70434532507,1247.823154553,-512.0103705441));
#270=CARTESIAN_POINT('Ctrl Pts',(360.49502179775,1248.289799746,-511.7883386835));
#271=CARTESIAN_POINT('Ctrl Pts',(360.29452708959,1248.771556068,-511.5743635703));
#272=CARTESIAN_POINT('Ctrl Pts',(360.10384102415,1249.268611881,-511.3694172076));
#273=CARTESIAN_POINT('Ctrl Pts',(359.92400590085,1249.781114682,-511.1745343523));
#274=CARTESIAN_POINT('Ctrl Pts',(359.75612887274,1250.309165032,-510.9908149059));
#275=CARTESIAN_POINT('Ctrl Pts',(359.48997939533,1251.244196037,-510.6960388582));
#276=CARTESIAN_POINT('Ctrl Pts',(359.38535768147,1251.643746488,-510.5790166159));
#277=CARTESIAN_POINT('Ctrl Pts',(359.28809481351,1252.051020074,-510.4689465642));
#278=CARTESIAN_POINT('Ctrl Pts',(359.19872479161,1252.465560883,-510.3663751818));
#279=CARTESIAN_POINT('Ctrl Pts',(359.11774006291,1252.886898865,-510.271808355));
#280=CARTESIAN_POINT('Ctrl Pts',(359.04559159903,1253.314549854,-510.1857112932));
#281=CARTESIAN_POINT('Ctrl Pts',(358.98268897368,1253.748015587,-510.1085084432));
#282=CARTESIAN_POINT('Ctrl Pts',(358.88985223981,1254.51241646,-509.9901726905));
#283=CARTESIAN_POINT('Ctrl Pts',(358.85561508799,1254.840840434,-509.944892096));
#284=CARTESIAN_POINT('Ctrl Pts',(358.82685669607,1255.171638857,-509.9049227089));
#285=CARTESIAN_POINT('Ctrl Pts',(358.80371189212,1255.504392549,-509.8704130724));
#286=CARTESIAN_POINT('Ctrl Pts',(358.78628262094,1255.838679948,-509.8414791853));
#287=CARTESIAN_POINT('Ctrl Pts',(358.77463794407,1256.174077109,-509.8182045021));
#288=CARTESIAN_POINT('Ctrl Pts',(358.7688140398,1256.510157706,-509.8006399328));
#289=CARTESIAN_POINT('Ctrl Pts',(358.76881442548,1257.304226763,-509.7726955813));
#290=CARTESIAN_POINT('Ctrl Pts',(358.77960193315,1257.762099828,-509.7672092058));
#291=CARTESIAN_POINT('Ctrl Pts',(358.80115687514,1258.21909416,-509.7723610467));
#292=CARTESIAN_POINT('Ctrl Pts',(358.83335546016,1258.674193558,-509.7880639829));
#293=CARTESIAN_POINT('Ctrl Pts',(358.87596989585,1259.126383755,-509.8141275065));
#294=CARTESIAN_POINT('Ctrl Pts',(358.92866832793,1259.574652486,-509.8502577873));
#295=CARTESIAN_POINT('Ctrl Pts',(358.99101477929,1260.017989558,-509.8960577365));
#296=CARTESIAN_POINT('Ctrl Pts',(359.17392950926,1261.137675971,-510.0367728453));
#297=CARTESIAN_POINT('Ctrl Pts',(359.30739733839,1261.804570449,-510.1447112721));
#298=CARTESIAN_POINT('Ctrl Pts',(359.46116681143,1262.455088122,-510.273182952));
#299=CARTESIAN_POINT('Ctrl Pts',(359.6335001337,1263.088341495,-510.4204907889));
#300=CARTESIAN_POINT('Ctrl Pts',(359.82262560381,1263.703532845,-510.584899354));
#301=CARTESIAN_POINT('Ctrl Pts',(360.02673573659,1264.299949261,-510.7646342486));
#302=CARTESIAN_POINT('Ctrl Pts',(360.24398538598,1264.876957689,-510.9578814687));
#303=CARTESIAN_POINT('Ctrl Pts',(360.7029850179,1265.995895049,-511.3694771451));
#304=CARTESIAN_POINT('Ctrl Pts',(360.94541185464,1266.538644615,-511.5884600322));
#305=CARTESIAN_POINT('Ctrl Pts',(361.19841419329,1267.062732878,-511.8183622866));
#306=CARTESIAN_POINT('Ctrl Pts',(361.46079720544,1267.568707899,-512.0579672051));
#307=CARTESIAN_POINT('Ctrl Pts',(361.73152134419,1268.057169287,-512.306208515));
#308=CARTESIAN_POINT('Ctrl Pts',(362.0096962692,1268.528755901,-512.562164366));
#309=CARTESIAN_POINT('Ctrl Pts',(362.29457477171,1268.984133538,-512.8250513217));
#310=CARTESIAN_POINT('Ctrl Pts',(363.12960567632,1270.246411979,-513.5975065542));
#311=CARTESIAN_POINT('Ctrl Pts',(363.69578650115,1271.01578858,-514.1235077163));
#312=CARTESIAN_POINT('Ctrl Pts',(364.27948097368,1271.735167615,-514.6674025652));
#313=CARTESIAN_POINT('Ctrl Pts',(364.87721962018,1272.407766032,-515.2254672914));
#314=CARTESIAN_POINT('Ctrl Pts',(365.48656971357,1273.03683225,-515.7949580202));
#315=CARTESIAN_POINT('Ctrl Pts',(366.10604197363,1273.625529565,-516.3740092664));
#316=CARTESIAN_POINT('Ctrl Pts',(366.73502224135,1274.176832648,-516.9615279796));
#317=CARTESIAN_POINT('Ctrl Pts',(367.96751115549,1275.173680061,-518.1106856805));
#318=CARTESIAN_POINT('Ctrl Pts',(368.56888503368,1275.623280811,-518.6704796135));
#319=CARTESIAN_POINT('Ctrl Pts',(369.17697718069,1276.043705336,-519.2350801674));
#320=CARTESIAN_POINT('Ctrl Pts',(369.79121720088,1276.436301211,-519.8033381455));
#321=CARTESIAN_POINT('Ctrl Pts',(370.41137792814,1276.802295532,-520.3742414429));
#322=CARTESIAN_POINT('Ctrl Pts',(371.03752347232,1277.142755172,-520.9468285326));
#323=CARTESIAN_POINT('Ctrl Pts',(371.6699829922,1277.458540443,-521.5199724139));
#324=CARTESIAN_POINT('Ctrl Pts',(372.92661804777,1278.03185149,-522.6439025127));
#325=CARTESIAN_POINT('Ctrl Pts',(373.533725164,1278.28345754,-523.1799360515));
#326=CARTESIAN_POINT('Ctrl Pts',(374.14398203563,1278.513791079,-523.7103151997));
#327=CARTESIAN_POINT('Ctrl Pts',(374.76797282035,1278.726824175,-524.2418389693));
#328=CARTESIAN_POINT('Ctrl Pts',(375.41204189857,1278.922864976,-524.7753497507));
#329=CARTESIAN_POINT('Ctrl Pts',(376.07532372021,1279.098589188,-525.3026689852));
#330=CARTESIAN_POINT('Ctrl Pts',(376.75082786667,1279.250822782,-525.8044437467));
#331=CARTESIAN_POINT('Ctrl Pts',(377.82662684458,1279.450649766,-526.5172363673));
#332=CARTESIAN_POINT('Ctrl Pts',(378.24014949898,1279.518505147,-526.7730852332));
#333=CARTESIAN_POINT('Ctrl Pts',(378.66875340118,1279.578648039,-527.0140353085));
#334=CARTESIAN_POINT('Ctrl Pts',(379.10907157755,1279.629242769,-527.2296568496));
#335=CARTESIAN_POINT('Ctrl Pts',(379.5591485122,1279.669039426,-527.4087357525));
#336=CARTESIAN_POINT('Ctrl Pts',(380.01970784588,1279.697148198,-527.5396617151));
#337=CARTESIAN_POINT('Ctrl Pts',(380.49516771556,1279.71242981,-527.6108337322));
#338=CARTESIAN_POINT('Ctrl Pts',(380.99347764137,1279.712429617,-527.6108328196));
#339=CARTESIAN_POINT('',(380.99992134585,1222.992056826,-179.7213385046));
#340=CARTESIAN_POINT('',(380.999994457966,1222.85279074041,-175.76399340786));
#341=CARTESIAN_POINT('',(380.99993379652,1267.414557762,-178.158037323));
#342=CARTESIAN_POINT('Ctrl Pts',(380.99991586872,1222.992056826,-179.7213385046));
#343=CARTESIAN_POINT('Ctrl Pts',(380.73867890417,1222.992056978,-179.7213392222));
#344=CARTESIAN_POINT('Ctrl Pts',(380.48018695481,1222.996257419,-179.7409007907));
#345=CARTESIAN_POINT('Ctrl Pts',(380.2242542129,1223.00450167,-179.77930362));
#346=CARTESIAN_POINT('Ctrl Pts',(379.97088056923,1223.016641277,-179.8353690966));
#347=CARTESIAN_POINT('Ctrl Pts',(379.72041374708,1223.032502119,-179.9074308956));
#348=CARTESIAN_POINT('Ctrl Pts',(379.47368545076,1223.051835435,-179.9933138925));
#349=CARTESIAN_POINT('Ctrl Pts',(379.23212152878,1223.074253575,-180.0903206746));
#350=CARTESIAN_POINT('Ctrl Pts',(378.69411837131,1223.131423331,-180.3312097989));
#351=CARTESIAN_POINT('Ctrl Pts',(378.39691996021,1223.168468175,-180.48301879));
#352=CARTESIAN_POINT('Ctrl Pts',(378.10585073471,1223.209857579,-180.6470816014));
#353=CARTESIAN_POINT('Ctrl Pts',(377.82076250482,1223.255205331,-180.8203221787));
#354=CARTESIAN_POINT('Ctrl Pts',(377.54137794164,1223.304174369,-181.0003736542));
#355=CARTESIAN_POINT('Ctrl Pts',(377.26701036035,1223.356550762,-181.1857272826));
#356=CARTESIAN_POINT('Ctrl Pts',(376.99636759121,1223.412351606,-181.3758223249));
#357=CARTESIAN_POINT('Ctrl Pts',(376.148207293,1223.600270395,-181.9916548842));
#358=CARTESIAN_POINT('Ctrl Pts',(375.5747783255,1223.746632891,-182.4377650733));
#359=CARTESIAN_POINT('Ctrl Pts',(375.01066469826,1223.909633509,-182.8969344812));
#360=CARTESIAN_POINT('Ctrl Pts',(374.45818276054,1224.087715247,-183.3605869859));
#361=CARTESIAN_POINT('Ctrl Pts',(373.91687570792,1224.279783518,-183.8250782907));
#362=CARTESIAN_POINT('Ctrl Pts',(373.38362898162,1224.486227535,-184.2904334106));
#363=CARTESIAN_POINT('Ctrl Pts',(372.8538401575,1224.708891963,-184.7590245788));
#364=CARTESIAN_POINT('Ctrl Pts',(371.58149969569,1225.288887456,-185.8968369264));
#365=CARTESIAN_POINT('Ctrl Pts',(370.85066240469,1225.65854345,-186.5604417825));
#366=CARTESIAN_POINT('Ctrl Pts',(370.12819427143,1226.061339854,-187.2228792491));
#367=CARTESIAN_POINT('Ctrl Pts',(369.41358749573,1226.498712911,-187.8826621653));
#368=CARTESIAN_POINT('Ctrl Pts',(368.7068191316,1226.972444915,-188.5383551767));
#369=CARTESIAN_POINT('Ctrl Pts',(368.00847499981,1227.484569355,-189.1883845136));
#370=CARTESIAN_POINT('Ctrl Pts',(367.31970440198,1228.037350287,-189.8308197735));
#371=CARTESIAN_POINT('Ctrl Pts',(365.88340532542,1229.300792701,-191.1717924362));
#372=CARTESIAN_POINT('Ctrl Pts',(365.14097376749,1230.020530721,-191.8657291402));
#373=CARTESIAN_POINT('Ctrl Pts',(364.41421791817,1230.798122379,-192.5447858318));
#374=CARTESIAN_POINT('Ctrl Pts',(363.70455289357,1231.639928649,-193.2068399246));
#375=CARTESIAN_POINT('Ctrl Pts',(363.01574332881,1232.552646407,-193.8475785891));
#376=CARTESIAN_POINT('Ctrl Pts',(362.35411860256,1233.542944629,-194.4602228746));
#377=CARTESIAN_POINT('Ctrl Pts',(361.7288679711,1234.617031599,-195.0352398133));
#378=CARTESIAN_POINT('Ctrl Pts',(360.92799053725,1236.23286555,-195.7642460163));
#379=CARTESIAN_POINT('Ctrl Pts',(360.7106525018,1236.699755129,-195.9611897018));
#380=CARTESIAN_POINT('Ctrl Pts',(360.50122789986,1237.181003926,-196.1499551376));
#381=CARTESIAN_POINT('Ctrl Pts',(360.30063732907,1237.676770912,-196.3296163947));
#382=CARTESIAN_POINT('Ctrl Pts',(360.10986161237,1238.18717606,-196.4991896554));
#383=CARTESIAN_POINT('Ctrl Pts',(359.92994418071,1238.712294102,-196.6576312508));
#384=CARTESIAN_POINT('Ctrl Pts',(359.76199345568,1239.252148292,-196.8038356986));
#385=CARTESIAN_POINT('Ctrl Pts',(359.49577622109,1240.20579485,-197.0322029443));
#386=CARTESIAN_POINT('Ctrl Pts',(359.39115055643,1240.612583129,-197.1208488258));
#387=CARTESIAN_POINT('Ctrl Pts',(359.29388391858,1241.026587071,-197.2020168779));
#388=CARTESIAN_POINT('Ctrl Pts',(359.20451035557,1241.447313472,-197.2751939954));
#389=CARTESIAN_POINT('Ctrl Pts',(359.12352236069,1241.874257878,-197.3399085586));
#390=CARTESIAN_POINT('Ctrl Pts',(359.05137095003,1242.306904614,-197.3957305171));
#391=CARTESIAN_POINT('Ctrl Pts',(358.98846574008,1242.74472681,-197.4422714728));
#392=CARTESIAN_POINT('Ctrl Pts',(358.89562542724,1243.515556953,-197.5065798885));
#393=CARTESIAN_POINT('Ctrl Pts',(358.86138704274,1243.846351328,-197.5286613929));
#394=CARTESIAN_POINT('Ctrl Pts',(358.83262760014,1244.179141035,-197.5452779262));
#395=CARTESIAN_POINT('Ctrl Pts',(358.8094819413,1244.513497468,-197.5563107719));
#396=CARTESIAN_POINT('Ctrl Pts',(358.7920520215,1244.848991929,-197.5616738464));
#397=CARTESIAN_POINT('Ctrl Pts',(358.78040690944,1245.185195635,-197.5613136998));
#398=CARTESIAN_POINT('Ctrl Pts',(358.7745827873,1245.521679713,-197.5552095156));
#399=CARTESIAN_POINT('Ctrl Pts',(358.774583173,1246.315749366,-197.527264412));
#400=CARTESIAN_POINT('Ctrl Pts',(358.78537109374,1246.7728758,-197.5005502902));
#401=CARTESIAN_POINT('Ctrl Pts',(358.80692685848,1247.228377765,-197.4632860264));
#402=CARTESIAN_POINT('Ctrl Pts',(358.83912666253,1247.681247652,-197.4156299718));
#403=CARTESIAN_POINT('Ctrl Pts',(358.88174269007,1248.130487049,-197.3578434789));
#404=CARTESIAN_POINT('Ctrl Pts',(358.9344430533,1248.575106802,-197.2902908326));
#405=CARTESIAN_POINT('Ctrl Pts',(358.99679173154,1249.014127085,-197.2134391812));
#406=CARTESIAN_POINT('Ctrl Pts',(359.17971199512,1250.121145026,-196.9943634416));
#407=CARTESIAN_POINT('Ctrl Pts',(359.3131831671,1250.778795532,-196.8398133801));
#408=CARTESIAN_POINT('Ctrl Pts',(359.4669561453,1251.4186659,-196.6659326744));
#409=CARTESIAN_POINT('Ctrl Pts',(359.63929304015,1252.039990221,-196.4744766366));
#410=CARTESIAN_POINT('Ctrl Pts',(359.8284220734,1252.642094841,-196.2672324868));
#411=CARTESIAN_POINT('Ctrl Pts',(360.03253569797,1253.224393446,-196.0460203398));
#412=CARTESIAN_POINT('Ctrl Pts',(360.24978871777,1253.786382155,-195.8126941918));
#413=CARTESIAN_POINT('Ctrl Pts',(360.70879232428,1254.873596436,-195.3234725031));
#414=CARTESIAN_POINT('Ctrl Pts',(360.95121954273,1255.399596499,-195.0668866367));
#415=CARTESIAN_POINT('Ctrl Pts',(361.20422189065,1255.906214355,-194.8007209503));
#416=CARTESIAN_POINT('Ctrl Pts',(361.46660455734,1256.394082268,-194.5261505462));
#417=CARTESIAN_POINT('Ctrl Pts',(361.73732801873,1256.863873345,-194.2441968445));
#418=CARTESIAN_POINT('Ctrl Pts',(362.01550196252,1257.316289687,-193.9557344416));
#419=CARTESIAN_POINT('Ctrl Pts',(362.30037921321,1257.752050541,-193.6614979679));
#420=CARTESIAN_POINT('Ctrl Pts',(363.13540867973,1258.956881995,-192.8022513994));
#421=CARTESIAN_POINT('Ctrl Pts',(363.70158897365,1259.687367072,-192.2234876882));
#422=CARTESIAN_POINT('Ctrl Pts',(364.28528235185,1260.366722048,-191.6303901892));
#423=CARTESIAN_POINT('Ctrl Pts',(364.88301936239,1260.998417661,-191.0264471806));
#424=CARTESIAN_POINT('Ctrl Pts',(365.49236730982,1261.585887161,-190.4141672346));
#425=CARTESIAN_POINT('Ctrl Pts',(366.11183695704,1262.132417147,-189.7951887003));
#426=CARTESIAN_POINT('Ctrl Pts',(366.74081419687,1262.641051776,-189.1703926627));
#427=CARTESIAN_POINT('Ctrl Pts',(367.97329588495,1263.554646077,-187.9540500567));
#428=CARTESIAN_POINT('Ctrl Pts',(368.57466560112,1263.963781689,-187.3640587841));
#429=CARTESIAN_POINT('Ctrl Pts',(369.18275319219,1264.343476764,-186.7713238143));
#430=CARTESIAN_POINT('Ctrl Pts',(369.79698819348,1264.69515628,-186.1768966879));
#431=CARTESIAN_POINT('Ctrl Pts',(370.41714333269,1265.020115416,-185.5817006371));
#432=CARTESIAN_POINT('Ctrl Pts',(371.04328259501,1265.319485993,-184.9866196551));
#433=CARTESIAN_POINT('Ctrl Pts',(371.67573501179,1265.594205456,-184.3927171751));
#434=CARTESIAN_POINT('Ctrl Pts',(372.9323280616,1266.08709304,-183.2313308439));
#435=CARTESIAN_POINT('Ctrl Pts',(373.53941336771,1266.300399989,-182.6789662759));
#436=CARTESIAN_POINT('Ctrl Pts',(374.14964886539,1266.492886363,-182.1337341041));
#437=CARTESIAN_POINT('Ctrl Pts',(374.77361003993,1266.668034405,-181.5885797938));
#438=CARTESIAN_POINT('Ctrl Pts',(375.41763799037,1266.826093252,-181.0426415281));
#439=CARTESIAN_POINT('Ctrl Pts',(376.08087029085,1266.964324624,-180.5043034138));
#440=CARTESIAN_POINT('Ctrl Pts',(376.7563225381,1267.080923359,-179.9930790334));
#441=CARTESIAN_POINT('Ctrl Pts',(377.83217533277,1267.230197691,-179.2678748273));
#442=CARTESIAN_POINT('Ctrl Pts',(378.24580612179,1267.279926568,-179.0077830232));
#443=CARTESIAN_POINT('Ctrl Pts',(378.67452293491,1267.323006267,-178.7630939694));
#444=CARTESIAN_POINT('Ctrl Pts',(379.11496100061,1267.358338332,-178.5443430483));
#445=CARTESIAN_POINT('Ctrl Pts',(379.56516424845,1267.385463618,-178.3628114576));
#446=CARTESIAN_POINT('Ctrl Pts',(380.02585639751,1267.404310488,-178.2301540149));
#447=CARTESIAN_POINT('Ctrl Pts',(380.50145997529,1267.41455789,-178.1580363975));
#448=CARTESIAN_POINT('Ctrl Pts',(380.99993379652,1267.414557762,-178.158037323));
#449=CARTESIAN_POINT('Ctrl Pts',(380.99993379652,1267.414557762,-178.158037323));
#450=CARTESIAN_POINT('Ctrl Pts',(381.26116980097,1267.414557695,-178.1580378079));
#451=CARTESIAN_POINT('Ctrl Pts',(381.51966131372,1267.41174281,-178.1778458425));
#452=CARTESIAN_POINT('Ctrl Pts',(381.77559394857,1267.406218565,-178.2167329573));
#453=CARTESIAN_POINT('Ctrl Pts',(382.0289676922,1267.398050163,-178.2735132664));
#454=CARTESIAN_POINT('Ctrl Pts',(382.27943473566,1267.387294134,-178.3465124738));
#455=CARTESIAN_POINT('Ctrl Pts',(382.52616329052,1267.3740457,-178.4335433869));
#456=CARTESIAN_POINT('Ctrl Pts',(382.76772738976,1267.358501929,-178.5318879364));
#457=CARTESIAN_POINT('Ctrl Pts',(383.30573814864,1267.318405752,-178.7762084472));
#458=CARTESIAN_POINT('Ctrl Pts',(383.60294353804,1267.292122745,-178.9302537842));
#459=CARTESIAN_POINT('Ctrl Pts',(383.89401916956,1267.262366996,-179.0968291189));
#460=CARTESIAN_POINT('Ctrl Pts',(384.17911330131,1267.229307529,-179.2728385269));
#461=CARTESIAN_POINT('Ctrl Pts',(384.45850330123,1267.193114211,-179.4558970368));
#462=CARTESIAN_POINT('Ctrl Pts',(384.73287590079,1267.153894397,-179.6444844231));
#463=CARTESIAN_POINT('Ctrl Pts',(385.00352334963,1267.111591612,-179.8380424673));
#464=CARTESIAN_POINT('Ctrl Pts',(385.85169294484,1266.967418885,-180.4655925862));
#465=CARTESIAN_POINT('Ctrl Pts',(386.42512594294,1266.852770777,-180.9209090176));
#466=CARTESIAN_POINT('Ctrl Pts',(386.98924288835,1266.722442428,-181.3904221752));
#467=CARTESIAN_POINT('Ctrl Pts',(387.54172756182,1266.577384183,-181.8654672783));
#468=CARTESIAN_POINT('Ctrl Pts',(388.08303692555,1266.418431782,-182.342332042));
#469=CARTESIAN_POINT('Ctrl Pts',(388.61628566154,1266.245198664,-182.8210688559));
#470=CARTESIAN_POINT('Ctrl Pts',(389.14607617296,1266.056011346,-183.3041738254));
#471=CARTESIAN_POINT('Ctrl Pts',(390.41842187777,1265.55739653,-184.4799939476));
#472=CARTESIAN_POINT('Ctrl Pts',(391.14926225559,1265.235278453,-185.1679725156));
#473=CARTESIAN_POINT('Ctrl Pts',(391.8717327049,1264.880016734,-185.8571155508));
#474=CARTESIAN_POINT('Ctrl Pts',(392.58634100194,1264.490073894,-186.5460404622));
#475=CARTESIAN_POINT('Ctrl Pts',(393.29310997714,1264.063570865,-187.2334405713));
#476=CARTESIAN_POINT('Ctrl Pts',(393.99145359525,1263.598368251,-187.9178886966));
#477=CARTESIAN_POINT('Ctrl Pts',(394.68022224685,1263.092071575,-188.597618006));
#478=CARTESIAN_POINT('Ctrl Pts',(396.11653679725,1261.925897776,-190.0241604922));
#479=CARTESIAN_POINT('Ctrl Pts',(396.85898434721,1261.256638799,-190.7670211884));
#480=CARTESIAN_POINT('Ctrl Pts',(397.5857526315,1260.528612933,-191.4991020511));
#481=CARTESIAN_POINT('Ctrl Pts',(398.29542560559,1259.735324231,-192.2187319353));
#482=CARTESIAN_POINT('Ctrl Pts',(398.9842370382,1258.869787684,-192.9220777537));
#483=CARTESIAN_POINT('Ctrl Pts',(399.64585522685,1257.924872877,-193.6028436216));
#484=CARTESIAN_POINT('Ctrl Pts',(400.27108777113,1256.893715659,-194.2519531444));
#485=CARTESIAN_POINT('Ctrl Pts',(401.07182179874,1255.333083952,-195.0926335226));
#486=CARTESIAN_POINT('Ctrl Pts',(401.28905376731,1254.881327777,-195.3218097827));
#487=CARTESIAN_POINT('Ctrl Pts',(401.49837667656,1254.414683698,-195.5438409664));
#488=CARTESIAN_POINT('Ctrl Pts',(401.6988708075,1253.932928567,-195.7578154396));
#489=CARTESIAN_POINT('Ctrl Pts',(401.88955634381,1253.435874027,-195.9627612064));
#490=CARTESIAN_POINT('Ctrl Pts',(402.06939099411,1252.92337258,-196.1576435177));
#491=CARTESIAN_POINT('Ctrl Pts',(402.23726761413,1252.395323668,-196.3413624807));
#492=CARTESIAN_POINT('Ctrl Pts',(402.5034168245,1251.460294204,-196.6361381572));
#493=CARTESIAN_POINT('Ctrl Pts',(402.60803860647,1251.060743771,-196.7531604433));
#494=CARTESIAN_POINT('Ctrl Pts',(402.70530154408,1250.653470199,-196.8632305403));
#495=CARTESIAN_POINT('Ctrl Pts',(402.79467163707,1250.2389294,-196.9658019695));
#496=CARTESIAN_POINT('Ctrl Pts',(402.87565643814,1249.817591425,-197.0603688445));
#497=CARTESIAN_POINT('Ctrl Pts',(402.94780497543,1249.389940439,-197.1464659556));
#498=CARTESIAN_POINT('Ctrl Pts',(403.01070767495,1248.956474703,-197.2236688558));
#499=CARTESIAN_POINT('Ctrl Pts',(403.1035445279,1248.192073907,-197.3420046831));
#500=CARTESIAN_POINT('Ctrl Pts',(403.13778173555,1247.863649901,-197.3872853166));
#501=CARTESIAN_POINT('Ctrl Pts',(403.16654018763,1247.532851423,-197.4272547478));
#502=CARTESIAN_POINT('Ctrl Pts',(403.18968505132,1247.200097711,-197.4617644267));
#503=CARTESIAN_POINT('Ctrl Pts',(403.20711437929,1246.865810344,-197.4906983515));
#504=CARTESIAN_POINT('Ctrl Pts',(403.21875910972,1246.530413247,-197.5139730681));
#505=CARTESIAN_POINT('Ctrl Pts',(403.2245830663,1246.194332692,-197.5315376703));
#506=CARTESIAN_POINT('Ctrl Pts',(403.22458281117,1245.400263572,-197.5594821122));
#507=CARTESIAN_POINT('Ctrl Pts',(403.21379537935,1244.942390516,-197.5649685387));
#508=CARTESIAN_POINT('Ctrl Pts',(403.19224051329,1244.485396187,-197.5598167492));
#509=CARTESIAN_POINT('Ctrl Pts',(403.16004200377,1244.030296787,-197.5441138642));
#510=CARTESIAN_POINT('Ctrl Pts',(403.11742764267,1243.578106583,-197.5180503911));
#511=CARTESIAN_POINT('Ctrl Pts',(403.06472928388,1243.129837839,-197.4819201597));
#512=CARTESIAN_POINT('Ctrl Pts',(403.00238290413,1242.686500749,-197.4361202585));
#513=CARTESIAN_POINT('Ctrl Pts',(402.81946834749,1241.56681425,-197.2954052642));
#514=CARTESIAN_POINT('Ctrl Pts',(402.6860006117,1240.899919686,-197.1874668965));
#515=CARTESIAN_POINT('Ctrl Pts',(402.53223122638,1240.249401926,-197.0589952703));
#516=CARTESIAN_POINT('Ctrl Pts',(402.35989798643,1239.616148472,-196.9116874816));
#517=CARTESIAN_POINT('Ctrl Pts',(402.17077259134,1239.000957041,-196.7472789576));
#518=CARTESIAN_POINT('Ctrl Pts',(401.96666252485,1238.404540535,-196.5675440956));
#519=CARTESIAN_POINT('Ctrl Pts',(401.74941293455,1237.827532013,-196.3742969013));
#520=CARTESIAN_POINT('Ctrl Pts',(401.29041340504,1236.708594456,-195.9627012606));
#521=CARTESIAN_POINT('Ctrl Pts',(401.04798662385,1236.165844814,-195.7437183945));
#522=CARTESIAN_POINT('Ctrl Pts',(400.79498432758,1235.641756464,-195.5138161483));
#523=CARTESIAN_POINT('Ctrl Pts',(400.53260134353,1235.13578134,-195.2742112243));
#524=CARTESIAN_POINT('Ctrl Pts',(400.26187722949,1234.647319849,-195.0259699051));
#525=CARTESIAN_POINT('Ctrl Pts',(399.98370233647,1234.175733155,-194.7700140507));
#526=CARTESIAN_POINT('Ctrl Pts',(399.69882387144,1233.720355458,-194.5071270957));
#527=CARTESIAN_POINT('Ctrl Pts',(398.86379307011,1232.45807685,-193.7346718589));
#528=CARTESIAN_POINT('Ctrl Pts',(398.29761233632,1231.688700185,-193.2086707128));
#529=CARTESIAN_POINT('Ctrl Pts',(397.71391794316,1230.969321073,-192.6647758659));
#530=CARTESIAN_POINT('Ctrl Pts',(397.11617937351,1230.296722585,-192.1067111349));
#531=CARTESIAN_POINT('Ctrl Pts',(396.5068293643,1229.667656308,-191.5372204032));
#532=CARTESIAN_POINT('Ctrl Pts',(395.88735719104,1229.078958933,-190.9581691504));
#533=CARTESIAN_POINT('Ctrl Pts',(395.25837700042,1228.527655785,-190.3706504142));
#534=CARTESIAN_POINT('Ctrl Pts',(394.02588830486,1227.530808298,-189.2214927149));
#535=CARTESIAN_POINT('Ctrl Pts',(393.42451455898,1227.081207527,-188.6616987994));
#536=CARTESIAN_POINT('Ctrl Pts',(392.81642254873,1226.660782976,-188.0970982568));
#537=CARTESIAN_POINT('Ctrl Pts',(392.20218267131,1226.268187073,-187.5288402833));
#538=CARTESIAN_POINT('Ctrl Pts',(391.58202209475,1225.902192718,-186.9579369826));
#539=CARTESIAN_POINT('Ctrl Pts',(390.95587671134,1225.561733042,-186.3853498794));
#540=CARTESIAN_POINT('Ctrl Pts',(390.3234173643,1225.245947731,-185.8122059705));
#541=CARTESIAN_POINT('Ctrl Pts',(389.06678298156,1224.67263673,-184.6882760463));
#542=CARTESIAN_POINT('Ctrl Pts',(388.45967625707,1224.421030698,-184.152242614));
#543=CARTESIAN_POINT('Ctrl Pts',(387.8494197863,1224.19069716,-183.6218635376));
#544=CARTESIAN_POINT('Ctrl Pts',(387.22542948741,1223.97766407,-183.0903398533));
#545=CARTESIAN_POINT('Ctrl Pts',(386.58136100074,1223.781623265,-182.5568291571));
#546=CARTESIAN_POINT('Ctrl Pts',(385.91807984823,1223.605899012,-182.0295099303));
#547=CARTESIAN_POINT('Ctrl Pts',(385.2425764074,1223.453665328,-181.5277349823));
#548=CARTESIAN_POINT('Ctrl Pts',(384.16677808419,1223.253838015,-180.8149412537));
#549=CARTESIAN_POINT('Ctrl Pts',(383.75325544281,1223.185982471,-180.5590917582));
#550=CARTESIAN_POINT('Ctrl Pts',(383.32465173373,1223.125839421,-180.3181410203));
#551=CARTESIAN_POINT('Ctrl Pts',(382.88433354803,1223.075244499,-180.1025186097));
#552=CARTESIAN_POINT('Ctrl Pts',(382.43425653741,1223.035447632,-179.923438668));
#553=CARTESIAN_POINT('Ctrl Pts',(381.97369720405,1223.007338655,-179.7925116183));
#554=CARTESIAN_POINT('Ctrl Pts',(381.49823707125,1222.99205683,-179.7213385048));
#555=CARTESIAN_POINT('Ctrl Pts',(380.99992682298,1222.992056826,-179.7213385046));
#556=CARTESIAN_POINT('Origin',(456.08702924327,1257.640446715,-532.3498381367));
#557=CARTESIAN_POINT('',(380.99360356702,1277.059579348,-520.8377621931));
#558=CARTESIAN_POINT('',(380.993584330548,1237.46009307523,-522.231341381849));
#559=CARTESIAN_POINT('Ctrl Pts',(380.99360356702,1277.05957934773,-520.837762193683));
#560=CARTESIAN_POINT('Ctrl Pts',(382.406927661316,1277.05957886423,-520.83776136152));
#561=CARTESIAN_POINT('Ctrl Pts',(383.756356603859,1276.90057743369,-520.561851530965));
#562=CARTESIAN_POINT('Ctrl Pts',(386.341061163635,1276.32854187274,-519.674493438917));
#563=CARTESIAN_POINT('Ctrl Pts',(387.577757025637,1275.91460871663,-519.067788897596));
#564=CARTESIAN_POINT('Ctrl Pts',(389.939798694993,1274.8605247334,-517.727024700632));
#565=CARTESIAN_POINT('Ctrl Pts',(391.063395398507,1274.21963385816,-516.993087869487));
#566=CARTESIAN_POINT('Ctrl Pts',(393.159270645958,1272.74678373436,-515.542166975447));
#567=CARTESIAN_POINT('Ctrl Pts',(394.130834188632,1271.91419940417,-514.824784795213));
#568=CARTESIAN_POINT('Ctrl Pts',(395.823647580251,1270.17533643047,-513.545516969926));
#569=CARTESIAN_POINT('Ctrl Pts',(396.614852187753,1269.21557258076,-512.931279734614));
#570=CARTESIAN_POINT('Ctrl Pts',(398.041376706322,1267.09677544557,-511.815919893601));
#571=CARTESIAN_POINT('Ctrl Pts',(398.676669400745,1265.93755977341,-511.315108979228));
#572=CARTESIAN_POINT('Ctrl Pts',(399.718518217039,1263.48202488837,-510.505436050024));
#573=CARTESIAN_POINT('Ctrl Pts',(400.126012353032,1262.18272087262,-510.195953379189));
#574=CARTESIAN_POINT('Ctrl Pts',(400.669782317019,1259.52957656155,-509.81413191062));
#575=CARTESIAN_POINT('Ctrl Pts',(400.805814200293,1258.17565242576,-509.742028357541));
#576=CARTESIAN_POINT('Ctrl Pts',(400.805814220351,1255.5173123384,-509.835580190085));
#577=CARTESIAN_POINT('Ctrl Pts',(400.669782350942,1254.17180622907,-510.002681618958));
#578=CARTESIAN_POINT('Ctrl Pts',(400.126012409053,1251.55206611795,-510.570065522215));
#579=CARTESIAN_POINT('Ctrl Pts',(399.71851828133,1250.27773194623,-510.970119227615));
#580=CARTESIAN_POINT('Ctrl Pts',(398.676669481308,1247.88518889684,-511.950404898013));
#581=CARTESIAN_POINT('Ctrl Pts',(398.041376794975,1246.76404623041,-512.531465805073));
#582=CARTESIAN_POINT('Ctrl Pts',(396.614852296284,1244.72889663288,-513.793010666259));
#583=CARTESIAN_POINT('Ctrl Pts',(395.823647700601,1243.81468585548,-514.473196521374));
#584=CARTESIAN_POINT('Ctrl Pts',(394.130834331052,1242.17005267823,-515.871535835262));
#585=CARTESIAN_POINT('Ctrl Pts',(393.159270799418,1241.38995752519,-516.645671204923));
#586=CARTESIAN_POINT('Ctrl Pts',(391.063395584472,1240.0227457368,-518.196539191184));
#587=CARTESIAN_POINT('Ctrl Pts',(389.93979890277,1239.4350335525,-518.973712881739));
#588=CARTESIAN_POINT('Ctrl Pts',(387.577757285135,1238.47780829763,-520.385258888464));
#589=CARTESIAN_POINT('Ctrl Pts',(386.341061457203,1238.10754837609,-521.019560706982));
#590=CARTESIAN_POINT('Ctrl Pts',(383.756356940677,1237.59930612266,-521.944935913874));
#591=CARTESIAN_POINT('Ctrl Pts',(382.406921495079,1237.46009308594,-522.231341383364));
#592=CARTESIAN_POINT('Ctrl Pts',(380.993597353155,1237.46009307522,-522.231341381857));
#593=CARTESIAN_POINT('Ctrl Pts',(380.993593012286,1237.46009307522,-522.231341381857));
#594=CARTESIAN_POINT('Ctrl Pts',(380.993588671417,1237.46009307522,-522.231341381855));
#595=CARTESIAN_POINT('Ctrl Pts',(380.993584330549,1237.46009307523,-522.231341381849));
#596=CARTESIAN_POINT('Ctrl Pts',(380.993584330549,1237.46009307523,-522.231341381849));
#597=CARTESIAN_POINT('Ctrl Pts',(379.580287617878,1237.46009393309,-522.231339648035));
#598=CARTESIAN_POINT('Ctrl Pts',(378.230877103985,1237.59930297047,-521.944942346682));
#599=CARTESIAN_POINT('Ctrl Pts',(375.646222384685,1238.1075368112,-521.019580828857));
#600=CARTESIAN_POINT('Ctrl Pts',(374.409551455211,1238.47779269265,-520.385284116419));
#601=CARTESIAN_POINT('Ctrl Pts',(372.047564022155,1239.43500927188,-518.973746089754));
#602=CARTESIAN_POINT('Ctrl Pts',(370.923995984179,1240.02271690427,-518.196575267232));
#603=CARTESIAN_POINT('Ctrl Pts',(368.828177929941,1241.38991792639,-516.645712322749));
#604=CARTESIAN_POINT('Ctrl Pts',(367.856642899892,1242.17000685865,-515.87157916273));
#605=CARTESIAN_POINT('Ctrl Pts',(366.16386834287,1243.8146370328,-514.47323351212));
#606=CARTESIAN_POINT('Ctrl Pts',(365.37267773488,1244.72885373433,-513.793039766771));
#607=CARTESIAN_POINT('Ctrl Pts',(363.946181526563,1246.76401538179,-512.531482042136));
#608=CARTESIAN_POINT('Ctrl Pts',(363.310903130241,1247.88516416292,-511.950416157767));
#609=CARTESIAN_POINT('Ctrl Pts',(362.269079551609,1250.27771805247,-510.970123490757));
#610=CARTESIAN_POINT('Ctrl Pts',(361.861596372627,1251.55205693349,-510.570067751723));
#611=CARTESIAN_POINT('Ctrl Pts',(361.317841737882,1254.17180375662,-510.002681703901));
#612=CARTESIAN_POINT('Ctrl Pts',(361.181814213598,1255.51731186224,-509.835580154035));
#613=CARTESIAN_POINT('Ctrl Pts',(361.181814193539,1258.17565230094,-509.742028309127));
#614=CARTESIAN_POINT('Ctrl Pts',(361.317841690949,1259.52957844068,-509.814131842423));
#615=CARTESIAN_POINT('Ctrl Pts',(361.861596268219,1262.18272961431,-510.195954977843));
#616=CARTESIAN_POINT('Ctrl Pts',(362.269079416632,1263.48203848294,-510.505439345801));
#617=CARTESIAN_POINT('Ctrl Pts',(363.310902938371,1265.93758470458,-511.315118491176));
#618=CARTESIAN_POINT('Ctrl Pts',(363.946181308372,1267.09680684535,-511.815933940028));
#619=CARTESIAN_POINT('Ctrl Pts',(365.37267747388,1269.21561694791,-512.931305764082));
#620=CARTESIAN_POINT('Ctrl Pts',(366.163868065409,1270.1753872856,-513.545550452823));
#621=CARTESIAN_POINT('Ctrl Pts',(367.856642593442,1271.91424776012,-514.824824808467));
#622=CARTESIAN_POINT('Ctrl Pts',(368.828177610197,1272.74682575888,-515.542205220794));
#623=CARTESIAN_POINT('Ctrl Pts',(370.923995654086,1274.21966485182,-516.993121840137));
#624=CARTESIAN_POINT('Ctrl Pts',(372.047563695337,1274.86055101866,-517.727056129135));
#625=CARTESIAN_POINT('Ctrl Pts',(374.409551149768,1275.91462585795,-519.067812973145));
#626=CARTESIAN_POINT('Ctrl Pts',(375.646222101481,1276.3285546623,-519.674512703711));
#627=CARTESIAN_POINT('Ctrl Pts',(378.230880817045,1276.90058182547,-520.561859091916));
#628=CARTESIAN_POINT('Ctrl Pts',(379.580295656011,1277.05957933701,-520.837762192179));
#629=CARTESIAN_POINT('Ctrl Pts',(380.993597054373,1277.05957934773,-520.837762193686));
#630=CARTESIAN_POINT('Origin',(456.09363162289,1245.064042242,-174.9823397545));
#631=CARTESIAN_POINT('',(380.9997952219,1225.644907248,-186.4944134756));
#632=CARTESIAN_POINT('Ctrl Pts',(380.999800107067,1225.6449072484,-186.494413476268));
#633=CARTESIAN_POINT('Ctrl Pts',(379.586475965145,1225.64490723769,-186.494413474762));
#634=CARTESIAN_POINT('Ctrl Pts',(378.237040517296,1225.80390917226,-186.770324223504));
#635=CARTESIAN_POINT('Ctrl Pts',(375.652335992618,1226.37594473597,-187.657682512698));
#636=CARTESIAN_POINT('Ctrl Pts',(374.415640158767,1226.78987788679,-188.264387167767));
#637=CARTESIAN_POINT('Ctrl Pts',(372.053598525953,1227.84396185599,-189.60515158848));
#638=CARTESIAN_POINT('Ctrl Pts',(370.93000183498,1228.484852722,-190.339088529838));
#639=CARTESIAN_POINT('Ctrl Pts',(368.834126598602,1229.9577028312,-191.790009634202));
#640=CARTESIAN_POINT('Ctrl Pts',(367.862563054799,1230.79028715601,-192.507391914979));
#641=CARTESIAN_POINT('Ctrl Pts',(366.169749659717,1232.52915012102,-193.786659919325));
#642=CARTESIAN_POINT('Ctrl Pts',(365.378545049894,1233.48891396417,-194.400897239926));
#643=CARTESIAN_POINT('Ctrl Pts',(363.952020519857,1235.60771109403,-195.516257250947));
#644=CARTESIAN_POINT('Ctrl Pts',(363.316727816317,1236.76692676743,-196.017068250122));
#645=CARTESIAN_POINT('Ctrl Pts',(362.274878979711,1239.22246166668,-196.826741345295));
#646=CARTESIAN_POINT('Ctrl Pts',(361.867384832567,1240.52176569526,-197.136224097484));
#647=CARTESIAN_POINT('Ctrl Pts',(361.323614850889,1243.17491004642,-197.518045720905));
#648=CARTESIAN_POINT('Ctrl Pts',(361.18758296111,1244.52883420947,-197.590149347498));
#649=CARTESIAN_POINT('Ctrl Pts',(361.187582941049,1247.18717430159,-197.496597650216));
#650=CARTESIAN_POINT('Ctrl Pts',(361.323614803952,1248.53268038889,-197.32949629659));
#651=CARTESIAN_POINT('Ctrl Pts',(361.86738472815,1251.15242047092,-196.762112550621));
#652=CARTESIAN_POINT('Ctrl Pts',(362.274878844723,1252.42675463555,-196.362058927275));
#653=CARTESIAN_POINT('Ctrl Pts',(363.316727624433,1254.81929768243,-195.381773423435));
#654=CARTESIAN_POINT('Ctrl Pts',(363.952020301649,1255.94044035359,-194.800712601054));
#655=CARTESIAN_POINT('Ctrl Pts',(365.378544788872,1257.97558996838,-193.539167909082));
#656=CARTESIAN_POINT('Ctrl Pts',(366.169749382233,1258.88980075834,-192.858982138583));
#657=CARTESIAN_POINT('Ctrl Pts',(367.86256274832,1260.53443395684,-191.4606430027));
#658=CARTESIAN_POINT('Ctrl Pts',(368.834126278825,1261.31452912231,-190.686507732956));
#659=CARTESIAN_POINT('Ctrl Pts',(370.930001504844,1262.68174094004,-189.135639955472));
#660=CARTESIAN_POINT('Ctrl Pts',(372.053598199087,1263.26945314129,-188.358466374209));
#661=CARTESIAN_POINT('Ctrl Pts',(374.415639853264,1264.2266784259,-186.946920589692));
#662=CARTESIAN_POINT('Ctrl Pts',(375.652335709347,1264.59693836071,-186.312618884268));
#663=CARTESIAN_POINT('Ctrl Pts',(378.23704026097,1265.10518062525,-185.387243874228));
#664=CARTESIAN_POINT('Ctrl Pts',(379.58647571391,1265.24439365811,-185.100838489736));
#665=CARTESIAN_POINT('Ctrl Pts',(382.413105186243,1265.24439367954,-185.100838492748));
#666=CARTESIAN_POINT('Ctrl Pts',(383.762523169202,1265.10518381275,-185.387237573871));
#667=CARTESIAN_POINT('Ctrl Pts',(386.347187483513,1264.59694677083,-186.312604309648));
#668=CARTESIAN_POINT('Ctrl Pts',(387.583860886378,1264.22668918594,-186.946903353421));
#669=CARTESIAN_POINT('Ctrl Pts',(389.945852905664,1263.26946813772,-188.358446009742));
#670=CARTESIAN_POINT('Ctrl Pts',(391.069423006896,1262.68175774228,-189.135619130861));
#671=CARTESIAN_POINT('Ctrl Pts',(393.165244551974,1261.31455009427,-190.686486139093));
#672=CARTESIAN_POINT('Ctrl Pts',(394.136781003665,1260.5344572972,-191.460621068443));
#673=CARTESIAN_POINT('Ctrl Pts',(395.829552826458,1258.88982311116,-192.858965507895));
#674=CARTESIAN_POINT('Ctrl Pts',(396.620739825848,1257.97560724403,-193.539156474075));
#675=CARTESIAN_POINT('Ctrl Pts',(398.04722941236,1255.94044826653,-194.80070879898));
#676=CARTESIAN_POINT('Ctrl Pts',(398.682504794503,1254.81930132128,-195.381772063394));
#677=CARTESIAN_POINT('Ctrl Pts',(399.724323299252,1252.42675204927,-196.362060159909));
#678=CARTESIAN_POINT('Ctrl Pts',(400.131804410861,1251.15241596177,-196.76211394091));
#679=CARTESIAN_POINT('Ctrl Pts',(400.675556200384,1248.53267550914,-197.329497149956));
#680=CARTESIAN_POINT('Ctrl Pts',(400.811582947802,1247.18717098117,-197.496597819874));
#681=CARTESIAN_POINT('Ctrl Pts',(400.811582967863,1244.52883814135,-197.590149261935));
#682=CARTESIAN_POINT('Ctrl Pts',(400.675556236438,1243.17491558768,-197.518046209413));
#683=CARTESIAN_POINT('Ctrl Pts',(400.131804476824,1240.52177090617,-197.136225154367));
#684=CARTESIAN_POINT('Ctrl Pts',(399.724323379163,1239.22246494414,-196.826742385139));
#685=CARTESIAN_POINT('Ctrl Pts',(398.682504904639,1236.76692363505,-196.017067153644));
#686=CARTESIAN_POINT('Ctrl Pts',(398.047229538884,1235.60770351287,-195.516254026227));
#687=CARTESIAN_POINT('Ctrl Pts',(396.620739990499,1233.48889647232,-194.400887074711));
#688=CARTESIAN_POINT('Ctrl Pts',(395.829553012884,1232.52912717831,-193.786644936282));
#689=CARTESIAN_POINT('Ctrl Pts',(394.136781219702,1230.79026279357,-192.507371716322));
#690=CARTESIAN_POINT('Ctrl Pts',(393.16524477513,1229.95768081496,-191.789989605238));
#691=CARTESIAN_POINT('Ctrl Pts',(391.069423252961,1228.48483483708,-190.339068966849));
#692=CARTESIAN_POINT('Ctrl Pts',(389.945853167886,1227.84394576285,-189.60513235265));
#693=CARTESIAN_POINT('Ctrl Pts',(387.58386118777,1226.7898661551,-188.264370744602));
#694=CARTESIAN_POINT('Ctrl Pts',(386.347187812229,1226.37593549308,-187.657668574318));
#695=CARTESIAN_POINT('Ctrl Pts',(383.762523525743,1225.80390563539,-186.770318164002));
#696=CARTESIAN_POINT('Ctrl Pts',(382.413105543709,1225.64490725912,-186.494413477775));
#697=CARTESIAN_POINT('Ctrl Pts',(380.999800107067,1225.6449072484,-186.494413476268));
#698=CARTESIAN_POINT('Origin',(380.99999977051,1245.064041095,-174.9823395934));
#699=CARTESIAN_POINT('',(380.999986897313,1225.26429792176,-175.679128136426));
#700=CARTESIAN_POINT('',(0.,0.,0.));
#701=UNCERTAINTY_MEASURE_WITH_UNIT(LENGTH_MEASURE(0.01),#707,
'DISTANCE_ACCURACY_VALUE',
'Maximum model space distance between geometric entities at asserted c
onnectivities');
#702=UNCERTAINTY_MEASURE_WITH_UNIT(LENGTH_MEASURE(0.01),#707,
'DISTANCE_ACCURACY_VALUE',
'Maximum model space distance between geometric entities at asserted c
onnectivities');
#703=UNCERTAINTY_MEASURE_WITH_UNIT(LENGTH_MEASURE(0.01),#707,
'DISTANCE_ACCURACY_VALUE',
'Maximum model space distance between geometric entities at asserted c
onnectivities');
#704=(
GEOMETRIC_REPRESENTATION_CONTEXT(3)
GLOBAL_UNCERTAINTY_ASSIGNED_CONTEXT((#701))
GLOBAL_UNIT_ASSIGNED_CONTEXT((#707,#709,#710))
REPRESENTATION_CONTEXT('','3D')
);
#705=(
GEOMETRIC_REPRESENTATION_CONTEXT(3)
GLOBAL_UNCERTAINTY_ASSIGNED_CONTEXT((#702))
GLOBAL_UNIT_ASSIGNED_CONTEXT((#707,#709,#710))
REPRESENTATION_CONTEXT('','3D')
);
#706=(
GEOMETRIC_REPRESENTATION_CONTEXT(3)
GLOBAL_UNCERTAINTY_ASSIGNED_CONTEXT((#703))
GLOBAL_UNIT_ASSIGNED_CONTEXT((#707,#709,#710))
REPRESENTATION_CONTEXT('','3D')
);
#707=(
LENGTH_UNIT()
NAMED_UNIT(*)
SI_UNIT(.MILLI.,.METRE.)
);
#708=(
LENGTH_UNIT()
NAMED_UNIT(*)
SI_UNIT($,.METRE.)
);
#709=(
NAMED_UNIT(*)
PLANE_ANGLE_UNIT()
SI_UNIT($,.RADIAN.)
);
#710=(
NAMED_UNIT(*)
SI_UNIT($,.STERADIAN.)
SOLID_ANGLE_UNIT()
);
#711=SHAPE_DEFINITION_REPRESENTATION(#713,#716);
#712=SHAPE_DEFINITION_REPRESENTATION(#714,#717);
#713=PRODUCT_DEFINITION_SHAPE('',$,#719);
#714=PRODUCT_DEFINITION_SHAPE('',$,#720);
#715=PRODUCT_DEFINITION_SHAPE($,$,#14);
#716=SHAPE_REPRESENTATION('',(#97,#103),#704);
#717=SHAPE_REPRESENTATION('',(#98),#705);
#718=PRODUCT_DEFINITION_CONTEXT('part definition',#726,'design');
#719=PRODUCT_DEFINITION('coped','gline cage24 fishmouth',#721,#718);
#720=PRODUCT_DEFINITION('head bar','head bar',#722,#718);
#721=PRODUCT_DEFINITION_FORMATION('',$,#728);
#722=PRODUCT_DEFINITION_FORMATION('',$,#729);
#723=PRODUCT_RELATED_PRODUCT_CATEGORY('gline cage24 fishmouth',
'gline cage24 fishmouth',(#728));
#724=PRODUCT_RELATED_PRODUCT_CATEGORY('head bar','head bar',(#729));
#725=APPLICATION_PROTOCOL_DEFINITION('international standard',
'automotive_design',2009,#726);
#726=APPLICATION_CONTEXT(
'Core Data for Automotive Mechanical Design Process');
#727=PRODUCT_CONTEXT('part definition',#726,'mechanical');
#728=PRODUCT('coped','gline cage24 fishmouth','FreeCAD Model',(#727));
#729=PRODUCT('head bar','head bar',$,(#727));
#730=PRESENTATION_STYLE_ASSIGNMENT((#731));
#731=SURFACE_STYLE_USAGE(.BOTH.,#732);
#732=SURFACE_SIDE_STYLE('',(#733));
#733=SURFACE_STYLE_FILL_AREA(#734);
#734=FILL_AREA_STYLE('Steel - Satin',(#735));
#735=FILL_AREA_STYLE_COLOUR('Steel - Satin',#736);
#736=COLOUR_RGB('Steel - Satin',0.627450980392157,0.627450980392157,0.627450980392157);
ENDSEC;
END-ISO-10303-21;
