ISO-10303-21;
HEADER;
/* Generated by software containing ST-Developer
 * from STEP Tools, Inc. (www.steptools.com) 
 */

FILE_DESCRIPTION(
/* description */ ('FreeCAD Model'),
/* implementation_level */ '2;1');

FILE_NAME(
/* name */ 'shoulder bar.step',
/* time_stamp */ '2026-09-06T17:34:42-04:00',
/* author */ (''),
/* organization */ (''),
/* preprocessor_version */ 'ST-DEVELOPER v20.1',
/* originating_system */ 'Autodesk Translation Framework v15.8.0.0',
/* authorisation */ '');

FILE_SCHEMA (('AUTOMOTIVE_DESIGN { 1 0 10303 214 3 1 1 }'));
ENDSEC;

DATA;
#10=MECHANICAL_DESIGN_GEOMETRIC_PRESENTATION_REPRESENTATION('',(#17),#397);
#11=ITEM_DEFINED_TRANSFORMATION($,$,#93,#98);
#12=(
REPRESENTATION_RELATIONSHIP($,$,#408,#407)
REPRESENTATION_RELATIONSHIP_WITH_TRANSFORMATION(#11)
SHAPE_REPRESENTATION_RELATIONSHIP()
);
#13=CONTEXT_DEPENDENT_SHAPE_REPRESENTATION(#12,#406);
#14=NEXT_ASSEMBLY_USAGE_OCCURRENCE('shoulder bar:1','shoulder bar:1',
'shoulder bar:1',#410,#411,'shoulder bar:1');
#15=SHAPE_REPRESENTATION_RELATIONSHIP('SRR','None',#408,#16);
#16=ADVANCED_BREP_SHAPE_REPRESENTATION('',(#18),#396);
#17=STYLED_ITEM('',(#421),#18);
#18=MANIFOLD_SOLID_BREP('Body1',#79);
#19=FACE_BOUND('',#27,.T.);
#20=FACE_BOUND('',#30,.T.);
#21=FACE_OUTER_BOUND('',#25,.T.);
#22=FACE_OUTER_BOUND('',#26,.T.);
#23=FACE_OUTER_BOUND('',#28,.T.);
#24=FACE_OUTER_BOUND('',#29,.T.);
#25=EDGE_LOOP('',(#55,#56,#57,#58,#59));
#26=EDGE_LOOP('',(#60,#61));
#27=EDGE_LOOP('',(#62));
#28=EDGE_LOOP('',(#63,#64,#65,#66,#67));
#29=EDGE_LOOP('',(#68));
#30=EDGE_LOOP('',(#69,#70));
#31=LINE('',#186,#33);
#32=LINE('',#323,#34);
#33=VECTOR('',#105,16.9418);
#34=VECTOR('',#110,19.05);
#35=B_SPLINE_CURVE_WITH_KNOTS('',3,(#120,#121,#122,#123,#124,#125,#126,
#127,#128,#129,#130,#131,#132,#133,#134,#135,#136,#137,#138,#139,#140,#141,
#142,#143,#144,#145,#146,#147,#148,#149,#150,#151),.UNSPECIFIED.,.F.,.F.,
(4,2,2,2,2,2,2,2,2,2,2,2,2,2,2,4),(-8.25345759251862,-7.92010194630025,
-7.58674630008189,-7.25339065386352,-6.92003500764516,-6.59436767366078,
-6.26870033967641,-5.94303300569204,-5.61736567170767,-5.25841793122288,
-4.89947019073808,-4.18157470976849,-3.83835174128983,-3.49512877281116,
-3.1519058043325,-2.80868283585384),.UNSPECIFIED.);
#36=B_SPLINE_CURVE_WITH_KNOTS('',3,(#152,#153,#154,#155,#156,#157,#158,
#159,#160,#161,#162,#163,#164,#165,#166,#167,#168,#169,#170,#171,#172,#173,
#174,#175,#176,#177,#178,#179,#180,#181,#182,#183,#184),.UNSPECIFIED.,.F.,
 .F.,(4,2,2,2,2,2,2,3,2,2,2,2,2,2,2,4),(-2.80868283585384,-2.46545986737517,
-2.12223689889651,-1.77901393041785,-1.43579096193918,-0.717895480969592,
-0.358947740484796,0.,0.325667333984372,0.651334667968742,0.977002001953112,
1.30266933593748,1.63602498215585,1.96938062837422,2.30273627459258,2.63609192081095),
 .UNSPECIFIED.);
#37=B_SPLINE_CURVE_WITH_KNOTS('',3,(#187,#188,#189,#190,#191,#192,#193,
#194,#195,#196,#197,#198,#199,#200,#201,#202,#203,#204,#205,#206,#207,#208,
#209,#210,#211,#212,#213,#214,#215,#216,#217,#218,#219,#220,#221,#222,#223,
#224,#225,#226,#227,#228,#229,#230,#231,#232,#233,#234,#235,#236,#237,#238,
#239,#240,#241,#242,#243,#244,#245,#246,#247,#248),.UNSPECIFIED.,.T.,.F.,
(4,2,2,2,2,2,2,2,2,2,2,2,2,2,2,2,2,2,2,2,2,2,2,2,2,2,2,2,2,2,4),(0.,0.36747302130847,
0.73494604261694,1.46989208523388,1.80464205881601,2.13939203239814,2.47414200598027,
2.8088919795624,3.14364195314453,3.47839192672666,3.81314190030879,4.14789187389092,
4.88283791650786,5.25031093781633,5.6177839591248,5.94345129310917,6.26911862709355,
6.59478596107792,6.92045329506229,7.25380894128066,7.58716458749903,7.92052023371739,
8.25387587993576,8.58723152615412,8.92058717237249,9.25394281859085,9.58729846480922,
9.91296579879359,10.238633132778,10.5643004667623,10.8899678007467),
 .UNSPECIFIED.);
#38=B_SPLINE_CURVE_WITH_KNOTS('',3,(#252,#253,#254,#255,#256,#257,#258,
#259,#260,#261,#262,#263,#264,#265,#266,#267,#268,#269,#270,#271,#272,#273,
#274,#275,#276,#277,#278,#279,#280,#281,#282,#283,#284,#285),
 .UNSPECIFIED.,.F.,.F.,(4,2,2,2,2,2,2,2,2,2,2,2,2,2,2,2,4),(-9.3195371001044,
-8.93804938432354,-8.55656166854268,-8.17507395276182,-7.79358623698096,
-7.35979764478362,-6.92600905258627,-6.49222046038893,-6.05843186819159,
-5.67417583705572,-5.28991980591986,-4.90566377478399,-4.52140774364812,
-4.14835979126004,-3.77531183887196,-3.40226388648388,-3.0292159340958),
 .UNSPECIFIED.);
#39=B_SPLINE_CURVE_WITH_KNOTS('',3,(#286,#287,#288,#289,#290,#291,#292,
#293,#294,#295,#296,#297,#298,#299,#300,#301,#302,#303,#304,#305,#306,#307,
#308,#309,#310,#311,#312,#313,#314,#315,#316,#317,#318,#319,#320),
 .UNSPECIFIED.,.F.,.F.,(4,2,2,2,2,2,2,2,3,2,2,2,2,2,2,2,4),(-3.0292159340958,
-2.65616798170771,-2.28312002931963,-1.91007207693155,-1.53702412454347,
-1.1527680934076,-0.768512062271734,-0.384256031135867,0.,0.433788592197343,
0.867577184394685,1.30136577659203,1.73515436878937,2.11664208457023,2.49812980035109,
2.87961751613195,3.26110523191281),.UNSPECIFIED.);
#40=B_SPLINE_CURVE_WITH_KNOTS('',3,(#324,#325,#326,#327,#328,#329,#330,
#331,#332,#333,#334,#335,#336,#337,#338,#339,#340,#341,#342,#343,#344,#345,
#346,#347,#348,#349,#350,#351,#352,#353,#354,#355,#356,#357,#358,#359,#360,
#361,#362,#363,#364,#365,#366,#367,#368,#369,#370,#371,#372,#373,#374,#375,
#376,#377,#378,#379,#380,#381,#382,#383,#384,#385,#386,#387,#388,#389),
 .UNSPECIFIED.,.T.,.F.,(4,2,2,2,2,2,2,2,2,2,2,2,2,2,2,2,2,2,2,2,2,2,2,2,
2,2,2,2,2,2,2,2,4),(-12.5758297599543,-12.1999904329017,-11.8241511058492,
-11.4483117787967,-11.0724724517441,-10.6913912475791,-10.310310043414,
-9.929228839249,-9.54814763508396,-9.16706643091893,-8.78598522675389,-8.40490402258885,
-8.02382281842381,-7.64798349137127,-7.27214416431873,-6.89630483726619,
-6.52046551021366,-6.09828963649537,-5.67611376277709,-5.25393788905881,
-4.83176201534052,-4.4388797002821,-4.04599738522368,-3.65311507016525,
-3.26023275510683,-2.8673504400484,-2.47446812498998,-2.08158580993156,
-1.68870349487313,-1.26652762115485,-0.844351747436566,-0.422175873718283,
0.),.UNSPECIFIED.);
#41=VERTEX_POINT('',#118);
#42=VERTEX_POINT('',#119);
#43=VERTEX_POINT('',#185);
#44=VERTEX_POINT('',#250);
#45=VERTEX_POINT('',#251);
#46=VERTEX_POINT('',#322);
#47=EDGE_CURVE('',#41,#42,#35,.T.);
#48=EDGE_CURVE('',#42,#41,#36,.T.);
#49=EDGE_CURVE('',#42,#43,#31,.T.);
#50=EDGE_CURVE('',#43,#43,#37,.T.);
#51=EDGE_CURVE('',#44,#45,#38,.T.);
#52=EDGE_CURVE('',#45,#44,#39,.T.);
#53=EDGE_CURVE('',#45,#46,#32,.T.);
#54=EDGE_CURVE('',#46,#46,#40,.T.);
#55=ORIENTED_EDGE('',*,*,#47,.F.);
#56=ORIENTED_EDGE('',*,*,#48,.F.);
#57=ORIENTED_EDGE('',*,*,#49,.T.);
#58=ORIENTED_EDGE('',*,*,#50,.T.);
#59=ORIENTED_EDGE('',*,*,#49,.F.);
#60=ORIENTED_EDGE('',*,*,#51,.T.);
#61=ORIENTED_EDGE('',*,*,#52,.T.);
#62=ORIENTED_EDGE('',*,*,#50,.F.);
#63=ORIENTED_EDGE('',*,*,#51,.F.);
#64=ORIENTED_EDGE('',*,*,#52,.F.);
#65=ORIENTED_EDGE('',*,*,#53,.T.);
#66=ORIENTED_EDGE('',*,*,#54,.T.);
#67=ORIENTED_EDGE('',*,*,#53,.F.);
#68=ORIENTED_EDGE('',*,*,#54,.F.);
#69=ORIENTED_EDGE('',*,*,#47,.T.);
#70=ORIENTED_EDGE('',*,*,#48,.T.);
#71=CYLINDRICAL_SURFACE('',#94,16.9418);
#72=CYLINDRICAL_SURFACE('',#95,22.575);
#73=CYLINDRICAL_SURFACE('',#96,19.05);
#74=CYLINDRICAL_SURFACE('',#97,22.575);
#75=ADVANCED_FACE('',(#21),#71,.F.);
#76=ADVANCED_FACE('',(#22,#19),#72,.F.);
#77=ADVANCED_FACE('',(#23),#73,.T.);
#78=ADVANCED_FACE('',(#24,#20),#74,.F.);
#79=CLOSED_SHELL('',(#75,#76,#77,#78));
#80=DERIVED_UNIT_ELEMENT(#82,1.);
#81=DERIVED_UNIT_ELEMENT(#399,-3.);
#82=(
MASS_UNIT()
NAMED_UNIT(*)
SI_UNIT(.KILO.,.GRAM.)
);
#83=DERIVED_UNIT((#80,#81));
#84=MEASURE_REPRESENTATION_ITEM('density measure',
POSITIVE_RATIO_MEASURE(7850.),#83);
#85=PROPERTY_DEFINITION_REPRESENTATION(#90,#87);
#86=PROPERTY_DEFINITION_REPRESENTATION(#91,#88);
#87=REPRESENTATION('material name',(#89),#396);
#88=REPRESENTATION('density',(#84),#396);
#89=DESCRIPTIVE_REPRESENTATION_ITEM('Steel','Steel');
#90=PROPERTY_DEFINITION('material property','material name',#411);
#91=PROPERTY_DEFINITION('material property','density of part',#411);
#92=AXIS2_PLACEMENT_3D('',#115,#99,#100);
#93=AXIS2_PLACEMENT_3D('',#116,#101,#102);
#94=AXIS2_PLACEMENT_3D('',#117,#103,#104);
#95=AXIS2_PLACEMENT_3D('',#249,#106,#107);
#96=AXIS2_PLACEMENT_3D('',#321,#108,#109);
#97=AXIS2_PLACEMENT_3D('',#390,#111,#112);
#98=AXIS2_PLACEMENT_3D('',#391,#113,#114);
#99=DIRECTION('axis',(0.,0.,1.));
#100=DIRECTION('refdir',(1.,0.,0.));
#101=DIRECTION('axis',(0.,0.,1.));
#102=DIRECTION('refdir',(1.,0.,0.));
#103=DIRECTION('center_axis',(2.27541914706297E-16,-0.0351700254020341,
0.999381343288547));
#104=DIRECTION('ref_axis',(9.19400256700683E-17,0.999381343288547,0.0351700254020341));
#105=DIRECTION('',(2.27541914706297E-16,-0.035170025402034,0.999381343288547));
#106=DIRECTION('center_axis',(-1.89556000621221E-16,0.990268068741588,-0.139173100959942));
#107=DIRECTION('ref_axis',(-1.22464679914735E-16,-0.139173100959942,-0.990268068741588));
#108=DIRECTION('center_axis',(2.27541914706297E-16,-0.0351700254020341,
0.999381343288547));
#109=DIRECTION('ref_axis',(9.19400256700683E-17,0.999381343288547,0.0351700254020341));
#110=DIRECTION('',(-2.27541914706297E-16,0.0351700254020341,-0.999381343288547));
#111=DIRECTION('center_axis',(-1.89556000621221E-16,0.990268068741588,-0.139173100959942));
#112=DIRECTION('ref_axis',(3.08148791101829E-33,0.139173100959942,0.990268068741588));
#113=DIRECTION('',(0.,0.,1.));
#114=DIRECTION('',(1.,0.,0.));
#115=CARTESIAN_POINT('',(0.,0.,0.));
#116=CARTESIAN_POINT('',(0.,0.,0.));
#117=CARTESIAN_POINT('Origin',(-2.398673405979E-13,840.60821210267,-473.7397797865));
#118=CARTESIAN_POINT('',(-2.479020002873E-13,856.83851055062,-453.2239420282));
#119=CARTESIAN_POINT('',(-2.3427143081596E-13,822.76541365471,-448.435280549552));
#120=CARTESIAN_POINT('Ctrl Pts',(-2.32314167902814E-13,856.83851055063,
-453.223942028195));
#121=CARTESIAN_POINT('Ctrl Pts',(-1.11118548739479,856.83851055063,-453.223942028195));
#122=CARTESIAN_POINT('Ctrl Pts',(-2.2508437352186,856.729802687987,-453.293246063336));
#123=CARTESIAN_POINT('Ctrl Pts',(-4.49828063869632,856.282571876899,-453.573500456979));
#124=CARTESIAN_POINT('Ctrl Pts',(-5.60610751376723,855.944220158074,-453.784337339773));
#125=CARTESIAN_POINT('Ctrl Pts',(-7.71254418610757,855.061951312947,-454.317042321081));
#126=CARTESIAN_POINT('Ctrl Pts',(-8.71333600223334,854.517305877491,-454.63921784529));
#127=CARTESIAN_POINT('Ctrl Pts',(-10.5515544921737,853.270706097959,-455.339795107207));
#128=CARTESIAN_POINT('Ctrl Pts',(-11.3890778268375,852.568681975929,-455.717819001956));
#129=CARTESIAN_POINT('Ctrl Pts',(-12.8478691711127,851.098151272203,-456.449357275651));
#130=CARTESIAN_POINT('Ctrl Pts',(-13.5262583937961,850.278413938142,-456.830663009143));
#131=CARTESIAN_POINT('Ctrl Pts',(-14.7258518365338,848.490881191672,-457.551207642924));
#132=CARTESIAN_POINT('Ctrl Pts',(-15.247381863765,847.523056911882,-457.889832343098));
#133=CARTESIAN_POINT('Ctrl Pts',(-16.0905978755405,845.489841611997,-458.425055683348));
#134=CARTESIAN_POINT('Ctrl Pts',(-16.4132733362116,844.421175539159,-458.620590943024));
#135=CARTESIAN_POINT('Ctrl Pts',(-16.8389439984289,842.251511733147,-458.783662872213));
#136=CARTESIAN_POINT('Ctrl Pts',(-16.9418000000002,841.15034859962,-458.749356979002));
#137=CARTESIAN_POINT('Ctrl Pts',(-16.9418000000002,838.890507107533,-458.431756969409));
#138=CARTESIAN_POINT('Ctrl Pts',(-16.8185979501769,837.720702619595,-458.123311788286));
#139=CARTESIAN_POINT('Ctrl Pts',(-16.3538997193845,835.457884253755,-457.297052034094));
#140=CARTESIAN_POINT('Ctrl Pts',(-16.0124726345148,834.364168803781,-456.7811211697));
#141=CARTESIAN_POINT('Ctrl Pts',(-14.7059754631018,831.247780482555,-455.085396835209));
#142=CARTESIAN_POINT('Ctrl Pts',(-13.4469052828076,829.38644537734,-453.768049661315));
#143=CARTESIAN_POINT('Ctrl Pts',(-11.2781783393665,827.157096465813,-452.083582114215));
#144=CARTESIAN_POINT('Ctrl Pts',(-10.4777690360353,826.461946899301,-451.534758108533));
#145=CARTESIAN_POINT('Ctrl Pts',(-8.70456982075268,825.207620725657,-450.51809499426));
#146=CARTESIAN_POINT('Ctrl Pts',(-7.73159225239464,824.648401782496,-450.050635461406));
#147=CARTESIAN_POINT('Ctrl Pts',(-5.66103280246461,823.729504904891,-449.272047605048));
#148=CARTESIAN_POINT('Ctrl Pts',(-4.56091771289468,823.369030710075,-448.960429720252));
#149=CARTESIAN_POINT('Ctrl Pts',(-2.30249138190559,822.886865674187,-448.541904252565));
#150=CARTESIAN_POINT('Ctrl Pts',(-1.14407656159578,822.76541365471,-448.435280549552));
#151=CARTESIAN_POINT('Ctrl Pts',(-2.33701946683595E-13,822.76541365471,
-448.435280549552));
#152=CARTESIAN_POINT('Ctrl Pts',(-2.24542606730438E-13,822.76541365471,
-448.435280549552));
#153=CARTESIAN_POINT('Ctrl Pts',(1.14407656159532,822.76541365471,-448.435280549552));
#154=CARTESIAN_POINT('Ctrl Pts',(2.3024913819051,822.886865674187,-448.541904252565));
#155=CARTESIAN_POINT('Ctrl Pts',(4.5609177128941,823.369030710075,-448.960429720252));
#156=CARTESIAN_POINT('Ctrl Pts',(5.66103280246397,823.729504904891,-449.272047605048));
#157=CARTESIAN_POINT('Ctrl Pts',(7.73159225239401,824.648401782496,-450.050635461406));
#158=CARTESIAN_POINT('Ctrl Pts',(8.70456982075211,825.207620725657,-450.51809499426));
#159=CARTESIAN_POINT('Ctrl Pts',(10.4777690360348,826.461946899301,-451.534758108533));
#160=CARTESIAN_POINT('Ctrl Pts',(11.278178339366,827.157096465813,-452.083582114215));
#161=CARTESIAN_POINT('Ctrl Pts',(13.4469052828071,829.38644537734,-453.768049661315));
#162=CARTESIAN_POINT('Ctrl Pts',(14.7059754631013,831.247780482555,-455.085396835209));
#163=CARTESIAN_POINT('Ctrl Pts',(16.0124726345143,834.364168803781,-456.7811211697));
#164=CARTESIAN_POINT('Ctrl Pts',(16.3538997193841,835.457884253755,-457.297052034094));
#165=CARTESIAN_POINT('Ctrl Pts',(16.8185979501764,837.720702619595,-458.123311788286));
#166=CARTESIAN_POINT('Ctrl Pts',(16.9417999999998,838.890507107533,-458.431756969409));
#167=CARTESIAN_POINT('Ctrl Pts',(16.9417999999998,840.075355393363,-458.598276536496));
#168=CARTESIAN_POINT('Ctrl Pts',(16.9417999999998,841.15034859962,-458.749356979002));
#169=CARTESIAN_POINT('Ctrl Pts',(16.8389439984285,842.251511733147,-458.783662872213));
#170=CARTESIAN_POINT('Ctrl Pts',(16.4132733362111,844.421175539159,-458.620590943024));
#171=CARTESIAN_POINT('Ctrl Pts',(16.0905978755401,845.489841611997,-458.425055683348));
#172=CARTESIAN_POINT('Ctrl Pts',(15.2473818637645,847.523056911882,-457.889832343098));
#173=CARTESIAN_POINT('Ctrl Pts',(14.7258518365333,848.490881191672,-457.551207642924));
#174=CARTESIAN_POINT('Ctrl Pts',(13.5262583937957,850.278413938142,-456.830663009143));
#175=CARTESIAN_POINT('Ctrl Pts',(12.8478691711122,851.098151272203,-456.449357275651));
#176=CARTESIAN_POINT('Ctrl Pts',(11.389077826837,852.568681975929,-455.717819001956));
#177=CARTESIAN_POINT('Ctrl Pts',(10.5515544921732,853.270706097959,-455.339795107207));
#178=CARTESIAN_POINT('Ctrl Pts',(8.71333600223287,854.517305877491,-454.63921784529));
#179=CARTESIAN_POINT('Ctrl Pts',(7.7125441861071,855.061951312947,-454.317042321081));
#180=CARTESIAN_POINT('Ctrl Pts',(5.60610751376675,855.944220158074,-453.784337339773));
#181=CARTESIAN_POINT('Ctrl Pts',(4.49828063869585,856.282571876899,-453.573500456979));
#182=CARTESIAN_POINT('Ctrl Pts',(2.25084373521812,856.729802687987,-453.293246063336));
#183=CARTESIAN_POINT('Ctrl Pts',(1.11118548739431,856.83851055063,-453.223942028195));
#184=CARTESIAN_POINT('Ctrl Pts',(-2.43416398149066E-13,856.83851055063,
-453.223942028195));
#185=CARTESIAN_POINT('',(-1.625192147977E-13,811.8015091817,-136.8881191625));
#186=CARTESIAN_POINT('',(-2.39350198010618E-13,823.676893260944,-474.335623322856));
#187=CARTESIAN_POINT('Ctrl Pts',(16.9417999999998,828.564664338978,-131.513784654227));
#188=CARTESIAN_POINT('Ctrl Pts',(16.9417999999998,829.777653669397,-131.684259187209));
#189=CARTESIAN_POINT('Ctrl Pts',(16.8128318164949,830.972222370982,-132.003013851365));
#190=CARTESIAN_POINT('Ctrl Pts',(16.3284875725662,833.27938141798,-132.855912045634));
#191=CARTESIAN_POINT('Ctrl Pts',(15.9731287089027,834.392706267237,-133.388077143218));
#192=CARTESIAN_POINT('Ctrl Pts',(14.6138087292259,837.561391057048,-135.132915773352));
#193=CARTESIAN_POINT('Ctrl Pts',(13.3045879531919,839.448779231354,-136.482827171043));
#194=CARTESIAN_POINT('Ctrl Pts',(11.0761853702037,841.663102014176,-138.169504561709));
#195=CARTESIAN_POINT('Ctrl Pts',(10.2831868995257,842.331069493249,-138.699650282808));
#196=CARTESIAN_POINT('Ctrl Pts',(8.53176892302368,843.535666356113,-139.679723699839));
#197=CARTESIAN_POINT('Ctrl Pts',(7.57316367534987,844.072321215622,-140.129288115471));
#198=CARTESIAN_POINT('Ctrl Pts',(5.53788867163079,844.953223062966,-140.876796785641));
#199=CARTESIAN_POINT('Ctrl Pts',(4.45876569272871,845.298212846404,-141.175194142666));
#200=CARTESIAN_POINT('Ctrl Pts',(2.24778663545909,845.759020056276,-141.575321721438));
#201=CARTESIAN_POINT('Ctrl Pts',(1.1158332452736,845.874606077631,-141.676780641171));
#202=CARTESIAN_POINT('Ctrl Pts',(-1.11583324527393,845.874606077631,-141.676780641171));
#203=CARTESIAN_POINT('Ctrl Pts',(-2.24778663545942,845.759020056276,-141.575321721438));
#204=CARTESIAN_POINT('Ctrl Pts',(-4.45876569272909,845.298212846404,-141.175194142666));
#205=CARTESIAN_POINT('Ctrl Pts',(-5.53788867163114,844.953223062966,-140.87679678564));
#206=CARTESIAN_POINT('Ctrl Pts',(-7.57316367535021,844.072321215622,-140.129288115471));
#207=CARTESIAN_POINT('Ctrl Pts',(-8.53176892302408,843.535666356113,-139.679723699839));
#208=CARTESIAN_POINT('Ctrl Pts',(-10.2831868995261,842.331069493249,-138.699650282808));
#209=CARTESIAN_POINT('Ctrl Pts',(-11.076185370204,841.663102014176,-138.169504561709));
#210=CARTESIAN_POINT('Ctrl Pts',(-13.3045879531922,839.448779231354,-136.482827171043));
#211=CARTESIAN_POINT('Ctrl Pts',(-14.6138087292262,837.561391057048,-135.132915773352));
#212=CARTESIAN_POINT('Ctrl Pts',(-15.9731287089031,834.392706267237,-133.388077143218));
#213=CARTESIAN_POINT('Ctrl Pts',(-16.3284875725664,833.27938141798,-132.855912045634));
#214=CARTESIAN_POINT('Ctrl Pts',(-16.8128318164951,830.972222370982,-132.003013851365));
#215=CARTESIAN_POINT('Ctrl Pts',(-16.9418000000002,829.777653669397,-131.684259187209));
#216=CARTESIAN_POINT('Ctrl Pts',(-16.9418000000002,827.489671132722,-131.36270421172));
#217=CARTESIAN_POINT('Ctrl Pts',(-16.8389439984289,826.388507999194,-131.328398318509));
#218=CARTESIAN_POINT('Ctrl Pts',(-16.4132733362115,824.218844193182,-131.491470247698));
#219=CARTESIAN_POINT('Ctrl Pts',(-16.0905978755404,823.150178120344,-131.687005507374));
#220=CARTESIAN_POINT('Ctrl Pts',(-15.2473818637649,821.11696282046,-132.222228847624));
#221=CARTESIAN_POINT('Ctrl Pts',(-14.7258518365337,820.149138540669,-132.560853547798));
#222=CARTESIAN_POINT('Ctrl Pts',(-13.526258393796,818.361605794199,-133.281398181579));
#223=CARTESIAN_POINT('Ctrl Pts',(-12.8478691711126,817.541868460138,-133.662703915071));
#224=CARTESIAN_POINT('Ctrl Pts',(-11.3890778268374,816.071337756412,-134.394242188766));
#225=CARTESIAN_POINT('Ctrl Pts',(-10.5515544921735,815.369313634382,-134.772266083515));
#226=CARTESIAN_POINT('Ctrl Pts',(-8.7133360022333,814.12271385485,-135.472843345433));
#227=CARTESIAN_POINT('Ctrl Pts',(-7.71254418610746,813.578068419394,-135.795018869641));
#228=CARTESIAN_POINT('Ctrl Pts',(-5.6061075137671,812.695799574267,-136.327723850949));
#229=CARTESIAN_POINT('Ctrl Pts',(-4.49828063869621,812.357447855442,-136.538560733744));
#230=CARTESIAN_POINT('Ctrl Pts',(-2.25084373521851,811.910217044354,-136.818815127386));
#231=CARTESIAN_POINT('Ctrl Pts',(-1.11118548739472,811.801509181711,-136.888119162527));
#232=CARTESIAN_POINT('Ctrl Pts',(1.11118548739439,811.801509181711,-136.888119162527));
#233=CARTESIAN_POINT('Ctrl Pts',(2.25084373521819,811.910217044354,-136.818815127386));
#234=CARTESIAN_POINT('Ctrl Pts',(4.49828063869589,812.357447855442,-136.538560733744));
#235=CARTESIAN_POINT('Ctrl Pts',(5.60610751376678,812.695799574267,-136.327723850949));
#236=CARTESIAN_POINT('Ctrl Pts',(7.71254418610713,813.578068419394,-135.795018869641));
#237=CARTESIAN_POINT('Ctrl Pts',(8.71333600223297,814.12271385485,-135.472843345433));
#238=CARTESIAN_POINT('Ctrl Pts',(10.5515544921732,815.369313634382,-134.772266083515));
#239=CARTESIAN_POINT('Ctrl Pts',(11.3890778268371,816.071337756412,-134.394242188766));
#240=CARTESIAN_POINT('Ctrl Pts',(12.8478691711123,817.541868460138,-133.662703915071));
#241=CARTESIAN_POINT('Ctrl Pts',(13.5262583937957,818.361605794199,-133.281398181579));
#242=CARTESIAN_POINT('Ctrl Pts',(14.7258518365334,820.149138540669,-132.560853547798));
#243=CARTESIAN_POINT('Ctrl Pts',(15.2473818637646,821.11696282046,-132.222228847624));
#244=CARTESIAN_POINT('Ctrl Pts',(16.0905978755401,823.150178120344,-131.687005507374));
#245=CARTESIAN_POINT('Ctrl Pts',(16.4132733362112,824.218844193182,-131.491470247698));
#246=CARTESIAN_POINT('Ctrl Pts',(16.8389439984286,826.388507999195,-131.328398318509));
#247=CARTESIAN_POINT('Ctrl Pts',(16.9417999999999,827.489671132722,-131.36270421172));
#248=CARTESIAN_POINT('Ctrl Pts',(16.9417999999999,828.564664338978,-131.513784654227));
#249=CARTESIAN_POINT('Origin',(-1.442664693551E-13,753.66898185307,-105.9212677988));
#250=CARTESIAN_POINT('',(-1.59492126514E-13,847.99459636425,-141.9747258456));
#251=CARTESIAN_POINT('',(-1.5876190589092E-13,809.681518895083,-136.590173958083));
#252=CARTESIAN_POINT('Ctrl Pts',(-1.64868119156836E-13,847.994596364259,
-141.974725845614));
#253=CARTESIAN_POINT('Ctrl Pts',(-1.2716257192697,847.994596364259,-141.974725845614));
#254=CARTESIAN_POINT('Ctrl Pts',(-2.55540587271541,847.860745680464,-141.845475098242));
#255=CARTESIAN_POINT('Ctrl Pts',(-5.05236835066513,847.333817046197,-141.340384036103));
#256=CARTESIAN_POINT('Ctrl Pts',(-6.26566877763936,846.941002859468,-140.964852492356));
#257=CARTESIAN_POINT('Ctrl Pts',(-8.54487198940724,845.94573897147,-140.025759902613));
#258=CARTESIAN_POINT('Ctrl Pts',(-9.61360953249763,845.342431094817,-139.46151921773));
#259=CARTESIAN_POINT('Ctrl Pts',(-11.5588776345466,843.998019388516,-138.229618200612));
#260=CARTESIAN_POINT('Ctrl Pts',(-12.4356340748166,843.256932996389,-137.562295556093));
#261=CARTESIAN_POINT('Ctrl Pts',(-14.0778618593972,841.62666152087,-136.137309349064));
#262=CARTESIAN_POINT('Ctrl Pts',(-14.8835049664617,840.660644712424,-135.316556911854));
#263=CARTESIAN_POINT('Ctrl Pts',(-16.3054659853726,838.574112140672,-133.651471859065));
#264=CARTESIAN_POINT('Ctrl Pts',(-16.9224060785122,837.454198343944,-132.806916368662));
#265=CARTESIAN_POINT('Ctrl Pts',(-17.9384553522367,835.093153073942,-131.228467944221));
#266=CARTESIAN_POINT('Ctrl Pts',(-18.3382203978271,833.853854235372,-130.495008502066));
#267=CARTESIAN_POINT('Ctrl Pts',(-18.893268063125,831.255823824645,-129.312824177552));
#268=CARTESIAN_POINT('Ctrl Pts',(-19.0500000000002,829.896309691417,-128.866501355698));
#269=CARTESIAN_POINT('Ctrl Pts',(-19.0500000000002,827.196031460442,-128.487001999188));
#270=CARTESIAN_POINT('Ctrl Pts',(-18.9234801878214,825.925903366818,-128.515321763103));
#271=CARTESIAN_POINT('Ctrl Pts',(-18.4215928556398,823.454851315776,-128.91395108201));
#272=CARTESIAN_POINT('Ctrl Pts',(-18.0464552759965,822.252994064755,-129.278745114077));
#273=CARTESIAN_POINT('Ctrl Pts',(-17.0734815742555,819.969789409548,-130.173973177148));
#274=CARTESIAN_POINT('Ctrl Pts',(-16.4743503864426,818.885424608234,-130.703642386697));
#275=CARTESIAN_POINT('Ctrl Pts',(-15.0922121003441,816.877245688184,-131.786235099986));
#276=CARTESIAN_POINT('Ctrl Pts',(-14.3086660896024,815.953787718352,-132.339131127723));
#277=CARTESIAN_POINT('Ctrl Pts',(-12.6565534959061,814.336309416062,-133.352350618063));
#278=CARTESIAN_POINT('Ctrl Pts',(-11.7323134468367,813.578880798896,-133.85234215829));
#279=CARTESIAN_POINT('Ctrl Pts',(-9.69975972148901,812.227399497091,-134.769375304078));
#280=CARTESIAN_POINT('Ctrl Pts',(-8.59131867394432,811.633333218543,-135.186114534726));
#281=CARTESIAN_POINT('Ctrl Pts',(-6.25328876936124,810.667757900833,-135.872370502555));
#282=CARTESIAN_POINT('Ctrl Pts',(-5.02114520396051,810.295425989207,-136.14239552407));
#283=CARTESIAN_POINT('Ctrl Pts',(-2.5162762674758,809.802209641351,-136.501365599153));
#284=CARTESIAN_POINT('Ctrl Pts',(-1.2434931746271,809.681518895083,-136.590173958083));
#285=CARTESIAN_POINT('Ctrl Pts',(-1.62647673107585E-13,809.681518895083,
-136.590173958083));
#286=CARTESIAN_POINT('Ctrl Pts',(-1.55708779203678E-13,809.681518895083,
-136.590173958083));
#287=CARTESIAN_POINT('Ctrl Pts',(1.24349317462678,809.681518895083,-136.590173958083));
#288=CARTESIAN_POINT('Ctrl Pts',(2.51627626747555,809.802209641352,-136.501365599153));
#289=CARTESIAN_POINT('Ctrl Pts',(5.02114520396027,810.295425989207,-136.14239552407));
#290=CARTESIAN_POINT('Ctrl Pts',(6.25328876936101,810.667757900833,-135.872370502555));
#291=CARTESIAN_POINT('Ctrl Pts',(8.59131867394406,811.633333218543,-135.186114534726));
#292=CARTESIAN_POINT('Ctrl Pts',(9.69975972148871,812.227399497091,-134.769375304078));
#293=CARTESIAN_POINT('Ctrl Pts',(11.7323134468364,813.578880798896,-133.85234215829));
#294=CARTESIAN_POINT('Ctrl Pts',(12.6565534959058,814.336309416062,-133.352350618063));
#295=CARTESIAN_POINT('Ctrl Pts',(14.3086660896021,815.953787718352,-132.339131127723));
#296=CARTESIAN_POINT('Ctrl Pts',(15.0922121003438,816.877245688184,-131.786235099986));
#297=CARTESIAN_POINT('Ctrl Pts',(16.4743503864423,818.885424608234,-130.703642386697));
#298=CARTESIAN_POINT('Ctrl Pts',(17.0734815742551,819.969789409548,-130.173973177148));
#299=CARTESIAN_POINT('Ctrl Pts',(18.0464552759961,822.252994064755,-129.278745114077));
#300=CARTESIAN_POINT('Ctrl Pts',(18.4215928556395,823.454851315776,-128.91395108201));
#301=CARTESIAN_POINT('Ctrl Pts',(18.9234801878211,825.925903366818,-128.515321763103));
#302=CARTESIAN_POINT('Ctrl Pts',(19.0499999999998,827.196031460442,-128.487001999188));
#303=CARTESIAN_POINT('Ctrl Pts',(19.0499999999998,828.464419719959,-128.665262343908));
#304=CARTESIAN_POINT('Ctrl Pts',(19.0499999999998,829.896309691417,-128.866501355698));
#305=CARTESIAN_POINT('Ctrl Pts',(18.8932680631247,831.255823824645,-129.312824177552));
#306=CARTESIAN_POINT('Ctrl Pts',(18.3382203978267,833.853854235372,-130.495008502066));
#307=CARTESIAN_POINT('Ctrl Pts',(17.9384553522364,835.093153073943,-131.228467944221));
#308=CARTESIAN_POINT('Ctrl Pts',(16.9224060785118,837.454198343944,-132.806916368662));
#309=CARTESIAN_POINT('Ctrl Pts',(16.3054659853721,838.574112140673,-133.651471859065));
#310=CARTESIAN_POINT('Ctrl Pts',(14.8835049664612,840.660644712424,-135.316556911854));
#311=CARTESIAN_POINT('Ctrl Pts',(14.0778618593969,841.62666152087,-136.137309349064));
#312=CARTESIAN_POINT('Ctrl Pts',(12.4356340748162,843.256932996389,-137.562295556093));
#313=CARTESIAN_POINT('Ctrl Pts',(11.5588776345462,843.998019388516,-138.229618200612));
#314=CARTESIAN_POINT('Ctrl Pts',(9.61360953249729,845.342431094817,-139.46151921773));
#315=CARTESIAN_POINT('Ctrl Pts',(8.54487198940688,845.94573897147,-140.025759902613));
#316=CARTESIAN_POINT('Ctrl Pts',(6.26566877763899,846.941002859468,-140.964852492356));
#317=CARTESIAN_POINT('Ctrl Pts',(5.05236835066479,847.333817046197,-141.340384036103));
#318=CARTESIAN_POINT('Ctrl Pts',(2.55540587271511,847.860745680463,-141.845475098242));
#319=CARTESIAN_POINT('Ctrl Pts',(1.27162571926935,847.994596364259,-141.974725845614));
#320=CARTESIAN_POINT('Ctrl Pts',(-1.76247905159244E-13,847.994596364259,
-141.974725845614));
#321=CARTESIAN_POINT('Origin',(-2.398673405979E-13,840.60821210267,-473.7397797865));
#322=CARTESIAN_POINT('',(-2.371390128408E-13,820.64542336808,-448.1373353451));
#323=CARTESIAN_POINT('',(-2.39285845934539E-13,821.569997513023,-474.409768770409));
#324=CARTESIAN_POINT('Ctrl Pts',(19.0499999999998,840.175600012382,-461.446798846815));
#325=CARTESIAN_POINT('Ctrl Pts',(19.0499999999998,841.416205627573,-461.62115459551));
#326=CARTESIAN_POINT('Ctrl Pts',(18.9288492379474,842.661717817268,-461.598293674803));
#327=CARTESIAN_POINT('Ctrl Pts',(18.4460886910096,845.088983756706,-461.220115829888));
#328=CARTESIAN_POINT('Ctrl Pts',(18.0847157200966,846.271584852519,-460.869953213572));
#329=CARTESIAN_POINT('Ctrl Pts',(17.146995262159,848.520518146086,-460.004457363945));
#330=CARTESIAN_POINT('Ctrl Pts',(16.5694077915701,849.589958754845,-459.489947126354));
#331=CARTESIAN_POINT('Ctrl Pts',(15.2376507769943,851.573623096636,-458.433842261676));
#332=CARTESIAN_POINT('Ctrl Pts',(14.4829693447127,852.487539128865,-457.892315266166));
#333=CARTESIAN_POINT('Ctrl Pts',(12.858744709842,854.127838552998,-456.87389174207));
#334=CARTESIAN_POINT('Ctrl Pts',(11.9269642155139,854.912791089896,-456.35844887247));
#335=CARTESIAN_POINT('Ctrl Pts',(9.87196882679791,856.313946961,-455.411257598801));
#336=CARTESIAN_POINT('Ctrl Pts',(8.74862350502544,856.930168216549,-454.979818706187));
#337=CARTESIAN_POINT('Ctrl Pts',(6.3744564566408,857.932496706156,-454.268407874991));
#338=CARTESIAN_POINT('Ctrl Pts',(5.12097673746415,858.319480375662,-453.987885195783));
#339=CARTESIAN_POINT('Ctrl Pts',(2.56891497371006,858.832585209726,-453.614553333921));
#340=CARTESIAN_POINT('Ctrl Pts',(1.27027068054989,858.958500837258,-453.521887232639));
#341=CARTESIAN_POINT('Ctrl Pts',(-1.27027068055037,858.958500837258,-453.521887232639));
#342=CARTESIAN_POINT('Ctrl Pts',(-2.56891497371053,858.832585209726,-453.614553333921));
#343=CARTESIAN_POINT('Ctrl Pts',(-5.12097673746463,858.319480375662,-453.987885195783));
#344=CARTESIAN_POINT('Ctrl Pts',(-6.37445645664127,857.932496706156,-454.268407874991));
#345=CARTESIAN_POINT('Ctrl Pts',(-8.74862350502591,856.930168216549,-454.979818706187));
#346=CARTESIAN_POINT('Ctrl Pts',(-9.87196882679844,856.313946961,-455.411257598801));
#347=CARTESIAN_POINT('Ctrl Pts',(-11.9269642155144,854.912791089896,-456.35844887247));
#348=CARTESIAN_POINT('Ctrl Pts',(-12.8587447098425,854.127838552998,-456.87389174207));
#349=CARTESIAN_POINT('Ctrl Pts',(-14.4829693447132,852.487539128866,-457.892315266166));
#350=CARTESIAN_POINT('Ctrl Pts',(-15.2376507769948,851.573623096636,-458.433842261676));
#351=CARTESIAN_POINT('Ctrl Pts',(-16.5694077915706,849.589958754845,-459.489947126354));
#352=CARTESIAN_POINT('Ctrl Pts',(-17.1469952621595,848.520518146087,-460.004457363945));
#353=CARTESIAN_POINT('Ctrl Pts',(-18.0847157200971,846.271584852519,-460.869953213573));
#354=CARTESIAN_POINT('Ctrl Pts',(-18.44608869101,845.088983756706,-461.220115829888));
#355=CARTESIAN_POINT('Ctrl Pts',(-18.9288492379478,842.661717817268,-461.598293674802));
#356=CARTESIAN_POINT('Ctrl Pts',(-19.0500000000002,841.416205627573,-461.62115459551));
#357=CARTESIAN_POINT('Ctrl Pts',(-19.0500000000002,838.782042388594,-461.250947095162));
#358=CARTESIAN_POINT('Ctrl Pts',(-18.9011645695497,837.453214316529,-460.821950031421));
#359=CARTESIAN_POINT('Ctrl Pts',(-18.3710300823421,834.910025328417,-459.681470878042));
#360=CARTESIAN_POINT('Ctrl Pts',(-17.9885469032994,833.694795969732,-458.972477606757));
#361=CARTESIAN_POINT('Ctrl Pts',(-17.0168568620834,831.378092026593,-457.442332433794));
#362=CARTESIAN_POINT('Ctrl Pts',(-16.4269819025111,830.278054314572,-456.621568923308));
#363=CARTESIAN_POINT('Ctrl Pts',(-15.0695271908891,828.225321493897,-454.998427464799));
#364=CARTESIAN_POINT('Ctrl Pts',(-14.3013429368654,827.273176684839,-454.195859232762));
#365=CARTESIAN_POINT('Ctrl Pts',(-12.6970832428037,825.617341954492,-452.758537466911));
#366=CARTESIAN_POINT('Ctrl Pts',(-11.8113462852513,824.841727342687,-452.063184756689));
#367=CARTESIAN_POINT('Ctrl Pts',(-9.83898821484492,823.433540633717,-450.776904824892));
#368=CARTESIAN_POINT('Ctrl Pts',(-8.75214056825098,822.800968086085,-450.18632549266));
#369=CARTESIAN_POINT('Ctrl Pts',(-6.42781449122473,821.756019364201,-449.201542785713));
#370=CARTESIAN_POINT('Ctrl Pts',(-5.18742139126364,821.342715808333,-448.80659865881));
#371=CARTESIAN_POINT('Ctrl Pts',(-2.6283792124393,820.787285900755,-448.274338264963));
#372=CARTESIAN_POINT('Ctrl Pts',(-1.30960771686164,820.645423368082,-448.137335345108));
#373=CARTESIAN_POINT('Ctrl Pts',(1.30960771686119,820.645423368082,-448.137335345108));
#374=CARTESIAN_POINT('Ctrl Pts',(2.62837921243883,820.787285900754,-448.274338264963));
#375=CARTESIAN_POINT('Ctrl Pts',(5.18742139126307,821.342715808332,-448.80659865881));
#376=CARTESIAN_POINT('Ctrl Pts',(6.42781449122402,821.756019364201,-449.201542785713));
#377=CARTESIAN_POINT('Ctrl Pts',(8.75214056825028,822.800968086085,-450.18632549266));
#378=CARTESIAN_POINT('Ctrl Pts',(9.83898821484451,823.433540633717,-450.776904824892));
#379=CARTESIAN_POINT('Ctrl Pts',(11.8113462852509,824.841727342687,-452.063184756688));
#380=CARTESIAN_POINT('Ctrl Pts',(12.6970832428033,825.617341954492,-452.758537466911));
#381=CARTESIAN_POINT('Ctrl Pts',(14.3013429368649,827.273176684839,-454.195859232762));
#382=CARTESIAN_POINT('Ctrl Pts',(15.0695271908887,828.225321493897,-454.998427464799));
#383=CARTESIAN_POINT('Ctrl Pts',(16.4269819025106,830.278054314572,-456.621568923308));
#384=CARTESIAN_POINT('Ctrl Pts',(17.0168568620829,831.378092026593,-457.442332433793));
#385=CARTESIAN_POINT('Ctrl Pts',(17.9885469032989,833.694795969732,-458.972477606757));
#386=CARTESIAN_POINT('Ctrl Pts',(18.3710300823416,834.910025328417,-459.681470878042));
#387=CARTESIAN_POINT('Ctrl Pts',(18.9011645695493,837.453214316529,-460.821950031421));
#388=CARTESIAN_POINT('Ctrl Pts',(19.0499999999998,838.782042388594,-461.250947095162));
#389=CARTESIAN_POINT('Ctrl Pts',(19.0499999999998,840.175600012382,-461.446798846815));
#390=CARTESIAN_POINT('Origin',(-2.256328920743E-13,766.24538632609,-463.288766181));
#391=CARTESIAN_POINT('',(0.,0.,0.));
#392=UNCERTAINTY_MEASURE_WITH_UNIT(LENGTH_MEASURE(0.01),#398,
'DISTANCE_ACCURACY_VALUE',
'Maximum model space distance between geometric entities at asserted c
onnectivities');
#393=UNCERTAINTY_MEASURE_WITH_UNIT(LENGTH_MEASURE(0.01),#398,
'DISTANCE_ACCURACY_VALUE',
'Maximum model space distance between geometric entities at asserted c
onnectivities');
#394=UNCERTAINTY_MEASURE_WITH_UNIT(LENGTH_MEASURE(0.01),#398,
'DISTANCE_ACCURACY_VALUE',
'Maximum model space distance between geometric entities at asserted c
onnectivities');
#395=(
GEOMETRIC_REPRESENTATION_CONTEXT(3)
GLOBAL_UNCERTAINTY_ASSIGNED_CONTEXT((#392))
GLOBAL_UNIT_ASSIGNED_CONTEXT((#398,#400,#401))
REPRESENTATION_CONTEXT('','3D')
);
#396=(
GEOMETRIC_REPRESENTATION_CONTEXT(3)
GLOBAL_UNCERTAINTY_ASSIGNED_CONTEXT((#393))
GLOBAL_UNIT_ASSIGNED_CONTEXT((#398,#400,#401))
REPRESENTATION_CONTEXT('','3D')
);
#397=(
GEOMETRIC_REPRESENTATION_CONTEXT(3)
GLOBAL_UNCERTAINTY_ASSIGNED_CONTEXT((#394))
GLOBAL_UNIT_ASSIGNED_CONTEXT((#398,#400,#401))
REPRESENTATION_CONTEXT('','3D')
);
#398=(
LENGTH_UNIT()
NAMED_UNIT(*)
SI_UNIT(.MILLI.,.METRE.)
);
#399=(
LENGTH_UNIT()
NAMED_UNIT(*)
SI_UNIT($,.METRE.)
);
#400=(
NAMED_UNIT(*)
PLANE_ANGLE_UNIT()
SI_UNIT($,.RADIAN.)
);
#401=(
NAMED_UNIT(*)
SI_UNIT($,.STERADIAN.)
SOLID_ANGLE_UNIT()
);
#402=SHAPE_DEFINITION_REPRESENTATION(#404,#407);
#403=SHAPE_DEFINITION_REPRESENTATION(#405,#408);
#404=PRODUCT_DEFINITION_SHAPE('',$,#410);
#405=PRODUCT_DEFINITION_SHAPE('',$,#411);
#406=PRODUCT_DEFINITION_SHAPE($,$,#14);
#407=SHAPE_REPRESENTATION('',(#92,#98),#395);
#408=SHAPE_REPRESENTATION('',(#93),#396);
#409=PRODUCT_DEFINITION_CONTEXT('part definition',#417,'design');
#410=PRODUCT_DEFINITION('coped','gline cage24 fishmouth',#412,#409);
#411=PRODUCT_DEFINITION('shoulder bar','shoulder bar',#413,#409);
#412=PRODUCT_DEFINITION_FORMATION('',$,#419);
#413=PRODUCT_DEFINITION_FORMATION('',$,#420);
#414=PRODUCT_RELATED_PRODUCT_CATEGORY('gline cage24 fishmouth',
'gline cage24 fishmouth',(#419));
#415=PRODUCT_RELATED_PRODUCT_CATEGORY('shoulder bar','shoulder bar',(#420));
#416=APPLICATION_PROTOCOL_DEFINITION('international standard',
'automotive_design',2009,#417);
#417=APPLICATION_CONTEXT(
'Core Data for Automotive Mechanical Design Process');
#418=PRODUCT_CONTEXT('part definition',#417,'mechanical');
#419=PRODUCT('coped','gline cage24 fishmouth','FreeCAD Model',(#418));
#420=PRODUCT('shoulder bar','shoulder bar',$,(#418));
#421=PRESENTATION_STYLE_ASSIGNMENT((#422));
#422=SURFACE_STYLE_USAGE(.BOTH.,#423);
#423=SURFACE_SIDE_STYLE('',(#424));
#424=SURFACE_STYLE_FILL_AREA(#425);
#425=FILL_AREA_STYLE('Steel - Satin',(#426));
#426=FILL_AREA_STYLE_COLOUR('Steel - Satin',#427);
#427=COLOUR_RGB('Steel - Satin',0.627450980392157,0.627450980392157,0.627450980392157);
ENDSEC;
END-ISO-10303-21;
